<?xml version="1.0" encoding="utf-8"?>
<!-- Generator: Adobe Illustrator 24.1.0, SVG Export Plug-In . SVG Version: 6.00 Build 0)  -->
<svg version="1.1" xmlns="http://www.w3.org/2000/svg" xmlns:xlink="http://www.w3.org/1999/xlink" x="0px" y="0px"
	 viewBox="0 0 974.05 444.06" style="enable-background:new 0 0 974.05 444.06;" xml:space="preserve">
<style type="text/css">
	.st0{fill:#F6F7F7;}
	.st1{fill:#EFEEEE;}
	.st2{fill:#00AAD3;}
	.st3{fill:#7D519F;}
	.st4{fill:none;stroke:#00B6FF;stroke-width:0.5;stroke-miterlimit:10;}
	.st5{fill:none;stroke:#4E4D50;stroke-width:0.5;stroke-miterlimit:10;}
	.st6{fill:#4E4D50;}
	.st7{fill:#1A2165;}
	.st8{fill:#E28D00;}
	.st9{fill:#EFBBA3;}
	.st10{fill:#E0F2F3;}
	.st11{fill:#0F1A42;}
	.st12{fill:#192352;}
	.st13{fill:#FFFFFF;}
	.st14{fill:#0070D8;}
	.st15{fill:#353535;}
	.st16{fill:#141C57;}
	.st17{fill:#8FC6E2;}
	.st18{fill:#1E1E1E;}
	.st19{fill:#88B6EF;}
	.st20{fill:#D1F4FF;}
	.st21{fill:#A8A8A8;}
	.st22{fill:#B0D4EA;}
	.st23{fill:#ADADAD;}
	.st24{fill:#C6C6C6;}
	.st25{fill:#FFC954;}
	.st26{fill:#F0D9BA;}
	.st27{fill:#5E3287;}
	.st28{fill:#8EB5EE;}
	.st29{fill:#FF8B0E;}
	.st30{fill:#C8E1F9;}
	.st31{fill:#68408E;}
	.st32{fill:#FFCE4D;}
	.st33{fill:#0068C2;}
	.st34{fill:#FBB52F;}
	.st35{fill:none;stroke:#00AAD3;stroke-miterlimit:10;}
	.st36{fill:#221F1F;}
	.st37{clip-path:url(#SVGID_2_);fill:#4EC7EC;}
	.st38{clip-path:url(#SVGID_2_);fill:#6ABD54;}
	.st39{clip-path:url(#SVGID_2_);fill:#ED1D42;}
	.st40{clip-path:url(#SVGID_2_);fill:#FFC50A;}
	.st41{clip-path:url(#SVGID_2_);fill:none;}
	.st42{clip-path:url(#SVGID_4_);fill:#4EC7EC;}
	.st43{clip-path:url(#SVGID_4_);fill:#6ABD54;}
	.st44{clip-path:url(#SVGID_4_);fill:#ED1D42;}
	.st45{clip-path:url(#SVGID_4_);fill:#FFC50A;}
	.st46{clip-path:url(#SVGID_4_);fill:none;}
	.st47{fill:none;stroke:#4E4D50;stroke-miterlimit:10;}
	.st48{clip-path:url(#SVGID_6_);fill:#4EC7EC;}
	.st49{clip-path:url(#SVGID_6_);fill:#6ABD54;}
	.st50{clip-path:url(#SVGID_6_);fill:#ED1D42;}
	.st51{clip-path:url(#SVGID_6_);fill:#FFC50A;}
	.st52{clip-path:url(#SVGID_6_);fill:none;}
</style>
<g id="Layer_1">
	<g>
		<path class="st1" d="M88.72,137.49c27.54-23.6,58.57-42.79,91.9-57.07C245.09,52.8,377.8,4.89,530.65,0.75
			C746.54-5.1,849.12,23.83,910.06,62.71c60.94,38.88,88.81,196.42-145.26,251.42S196.71,365,106.69,317.21
			C27.9,275.38-9.2,221.41,88.72,137.49z"/>
		<g>
			<rect x="331.83" y="302.82" class="st6" width="5.27" height="56.98"/>
			<path class="st3" d="M355.85,308.79h-42.76c-2.64,0-4.8-2.16-4.8-4.8v-0.53c0-2.64,2.16-4.8,4.8-4.8h42.76
				c2.64,0,4.8,2.16,4.8,4.8V304C360.65,306.63,358.49,308.79,355.85,308.79z"/>
			<path class="st3" d="M369.91,267.2h-26.79c-6.14,0-10.76-5.6-9.6-11.63l4.37-22.65c0.89-4.6,4.91-7.93,9.6-7.93h25.98
				c6,0,10.59,5.36,9.65,11.3l-3.56,22.65C378.81,263.69,374.72,267.2,369.91,267.2z"/>
			<g>
				
					<rect x="318.11" y="271.36" transform="matrix(0.3848 -0.923 0.923 0.3848 -38.727 490.8036)" class="st3" width="61.45" height="6.19"/>
			</g>
			<path class="st6" d="M354.57,361.91h-40.21c-0.99,0-1.81-0.81-1.81-1.81l0,0c0-0.99,0.81-1.81,1.81-1.81h40.21
				c0.99,0,1.81,0.81,1.81,1.81l0,0C356.38,361.1,355.57,361.91,354.57,361.91z"/>
			<ellipse class="st6" cx="320.82" cy="366.02" rx="4.1" ry="4.11"/>
			<ellipse class="st6" cx="348.9" cy="366.02" rx="4.1" ry="4.11"/>
			<g>
				<path class="st7" d="M369.98,267.68c-0.05,0-0.08,0-0.09,0l-20.24,0c-0.27,0-0.49-0.22-0.49-0.49c0-0.27,0.22-0.49,0.49-0.49
					h20.25c0.03,0,1.87,0.04,3.9-0.91c2.7-1.27,4.47-3.61,5.27-6.95l1.93-12.3c0.04-0.27,0.29-0.45,0.56-0.41
					c0.27,0.04,0.45,0.29,0.41,0.56l-1.93,12.32c0,0.01,0,0.02-0.01,0.04c-1.09,4.58-3.78,6.69-5.85,7.65
					C372.18,267.63,370.39,267.68,369.98,267.68z"/>
			</g>
			<g>
				<path class="st8" d="M381.99,243.95c-0.03,0-0.05,0-0.08-0.01c-0.27-0.04-0.45-0.29-0.41-0.56l0.74-4.69
					c0.04-0.27,0.29-0.45,0.56-0.41c0.27,0.04,0.45,0.29,0.41,0.56l-0.74,4.69C382.43,243.78,382.23,243.95,381.99,243.95z"/>
			</g>
			<g>
				<path class="st7" d="M340.87,228.05c-0.14,0-0.28-0.06-0.37-0.17c-0.17-0.21-0.15-0.51,0.06-0.69c0.13-0.11,3.21-2.69,6.92-2.69
					h13.17c0.27,0,0.49,0.22,0.49,0.49s-0.22,0.49-0.49,0.49h-13.17c-3.35,0-6.26,2.44-6.29,2.46
					C341.1,228.01,340.98,228.05,340.87,228.05z"/>
			</g>
			<g>
				<path class="st7" d="M369.23,225.47h-6.22c-0.27,0-0.49-0.22-0.49-0.49s0.22-0.49,0.49-0.49h6.22c0.27,0,0.49,0.22,0.49,0.49
					S369.5,225.47,369.23,225.47z"/>
			</g>
			<g>
				<path class="st7" d="M356.85,309.28h-44.75c-1.23,0-2.24-0.39-2.98-1.15c-1.36-1.4-1.31-3.57-1.31-3.66
					c0.01-0.27,0.23-0.48,0.5-0.47c0.27,0.01,0.48,0.23,0.47,0.5c0,0.04-0.03,1.86,1.04,2.95c0.55,0.56,1.31,0.85,2.27,0.85h44.73
					c0.31-0.03,3.43-0.46,3.34-3.3c0-0.01,0-0.01,0-0.02l0-0.5c0-0.27,0.22-0.49,0.49-0.49c0,0,0,0,0,0c0.27,0,0.49,0.22,0.49,0.49
					l0,0.5c0.09,3.07-2.73,4.15-4.24,4.29C356.88,309.28,356.86,309.28,356.85,309.28z"/>
			</g>
			<g>
				<path class="st7" d="M312.56,360.59c-0.04,0-0.08,0-0.11-0.01c-0.26-0.06-0.42-0.33-0.36-0.59c0.18-0.76,0.95-2.18,2.56-2.18
					h39.65c0.79,0.02,2.32,0.51,2.57,2.23c0.04,0.27-0.14,0.52-0.41,0.56c-0.27,0.04-0.52-0.14-0.55-0.41
					c-0.2-1.34-1.56-1.39-1.62-1.39l-39.63,0c-1.25,0-1.61,1.42-1.61,1.43C312.98,360.44,312.78,360.59,312.56,360.59z"/>
			</g>
		</g>
		<g>
			
				<rect x="623.38" y="302.82" transform="matrix(-1 -1.224647e-16 1.224647e-16 -1 1252.0264 662.6221)" class="st6" width="5.27" height="56.98"/>
			<path class="st3" d="M604.63,308.79h42.76c2.64,0,4.8-2.16,4.8-4.8v-0.53c0-2.64-2.16-4.8-4.8-4.8h-42.76
				c-2.64,0-4.8,2.16-4.8,4.8V304C599.84,306.63,602,308.79,604.63,308.79z"/>
			<path class="st3" d="M590.57,267.2h26.79c6.14,0,10.76-5.6,9.6-11.63l-4.37-22.65c-0.89-4.6-4.91-7.93-9.6-7.93h-25.98
				c-6,0-10.59,5.36-9.65,11.3l3.56,22.65C581.67,263.69,585.76,267.2,590.57,267.2z"/>
			<g>
				
					<rect x="608.55" y="243.73" transform="matrix(0.9232 -0.3843 0.3843 0.9232 -58.5034 256.118)" class="st3" width="6.19" height="61.45"/>
			</g>
			<path class="st6" d="M605.91,361.91h40.21c0.99,0,1.81-0.81,1.81-1.81l0,0c0-0.99-0.81-1.81-1.81-1.81h-40.21
				c-0.99,0-1.81,0.81-1.81,1.81l0,0C604.1,361.1,604.92,361.91,605.91,361.91z"/>
			<ellipse class="st6" cx="639.67" cy="366.02" rx="4.1" ry="4.11"/>
			<ellipse class="st6" cx="611.59" cy="366.02" rx="4.1" ry="4.11"/>
			<g>
				<path class="st7" d="M590.49,267.68c-0.4,0-2.19-0.06-4.19-0.99c-2.07-0.96-4.77-3.07-5.85-7.65c0-0.01-0.01-0.02-0.01-0.04
					l-1.93-12.32c-0.04-0.27,0.14-0.52,0.41-0.56c0.27-0.04,0.52,0.14,0.56,0.41l1.93,12.3c1.91,8.01,9.09,7.87,9.16,7.87l20.27,0
					c0.27,0,0.49,0.22,0.49,0.49c0,0.27-0.22,0.49-0.49,0.49h-20.25C590.57,267.68,590.54,267.68,590.49,267.68z"/>
			</g>
			<g>
				<path class="st8" d="M578.49,243.95c-0.24,0-0.44-0.17-0.48-0.41l-0.74-4.69c-0.04-0.27,0.14-0.52,0.41-0.56
					c0.27-0.04,0.52,0.14,0.56,0.41l0.74,4.69c0.04,0.27-0.14,0.52-0.41,0.56C578.54,243.95,578.52,243.95,578.49,243.95z"/>
			</g>
			<g>
				<path class="st7" d="M619.61,228.05c-0.11,0-0.22-0.04-0.32-0.12c-0.05-0.04-2.95-2.46-6.29-2.46h-13.17
					c-0.27,0-0.49-0.22-0.49-0.49s0.22-0.49,0.49-0.49H613c3.72,0,6.79,2.58,6.92,2.69c0.21,0.17,0.23,0.48,0.06,0.69
					C619.89,227.99,619.75,228.05,619.61,228.05z"/>
			</g>
			<g>
				<path class="st8" d="M597.48,225.47h-6.22c-0.27,0-0.49-0.22-0.49-0.49s0.22-0.49,0.49-0.49h6.22c0.27,0,0.49,0.22,0.49,0.49
					S597.75,225.47,597.48,225.47z"/>
			</g>
			<g>
				<path class="st7" d="M648.39,309.28h-44.75c-0.02,0-0.03,0-0.05,0c-1.51-0.14-4.34-1.22-4.24-4.29l0-0.5
					c0-0.27,0.22-0.49,0.49-0.49c0,0,0,0,0,0c0.27,0,0.49,0.22,0.49,0.49l0,0.5c0,0.01,0,0.01,0,0.02c-0.09,2.84,3.02,3.26,3.34,3.3
					h44.73c0.96,0,1.72-0.29,2.27-0.85c1.07-1.1,1.04-2.93,1.04-2.95c-0.01-0.27,0.21-0.49,0.47-0.5c0,0,0.01,0,0.01,0
					c0.26,0,0.48,0.21,0.49,0.47c0,0.09,0.05,2.25-1.31,3.66C650.63,308.89,649.63,309.28,648.39,309.28z"/>
			</g>
			<g>
				<path class="st7" d="M647.92,360.59c-0.22,0-0.42-0.15-0.47-0.37c-0.01-0.06-0.37-1.44-1.61-1.44h-39.65
					c-0.13,0.01-1.41,0.09-1.6,1.39c-0.04,0.27-0.29,0.45-0.55,0.41c-0.27-0.04-0.45-0.29-0.41-0.56c0.25-1.71,1.78-2.2,2.56-2.23
					l39.66,0c1.61,0,2.38,1.43,2.56,2.18c0.06,0.26-0.1,0.53-0.36,0.59C648,360.59,647.96,360.59,647.92,360.59z"/>
			</g>
		</g>
		<g>
			
				<rect x="749.88" y="296.54" transform="matrix(-1 -1.224647e-16 1.224647e-16 -1 1504.7601 647.129)" class="st6" width="5" height="54.05"/>
			<path class="st3" d="M732.35,302.2h40.05c2.64,0,4.8-2.16,4.8-4.8l0,0c0-2.64-2.16-4.8-4.8-4.8h-40.05c-2.64,0-4.8,2.16-4.8,4.8
				l0,0C727.55,300.04,729.71,302.2,732.35,302.2z"/>
			<path class="st3" d="M718.77,262.75h25.41c5.82,0,10.2-5.31,9.1-11.03l-4.14-21.48c-0.84-4.37-4.66-7.52-9.1-7.52h-24.65
				c-5.69,0-10.04,5.09-9.16,10.72l3.37,21.48C710.32,259.42,714.2,262.75,718.77,262.75z"/>
			<g>
				
					<rect x="735.66" y="240.49" transform="matrix(0.9232 -0.3843 0.3843 0.9232 -46.8917 304.593)" class="st3" width="6.19" height="58.29"/>
			</g>
			<path class="st6" d="M733.31,352.59h38.13c0.94,0,1.72-0.77,1.72-1.72l0,0c0-0.94-0.77-1.72-1.72-1.72h-38.13
				c-0.94,0-1.72,0.77-1.72,1.72l0,0C731.6,351.82,732.37,352.59,733.31,352.59z"/>
			<ellipse class="st6" cx="765.33" cy="356.49" rx="3.89" ry="3.9"/>
			<ellipse class="st6" cx="738.7" cy="356.49" rx="3.89" ry="3.9"/>
			<g>
				<path class="st7" d="M718.69,263.24c-0.38,0-2.08-0.05-3.99-0.94c-1.97-0.91-4.53-2.92-5.57-7.27c0-0.01-0.01-0.02-0.01-0.04
					l-1.83-11.69c-0.04-0.27,0.14-0.52,0.41-0.56c0.27-0.04,0.52,0.14,0.56,0.41l1.83,11.67c1.8,7.55,8.38,7.45,8.66,7.44l19.23,0
					c0.27,0,0.49,0.22,0.49,0.49c0,0.27-0.22,0.49-0.49,0.49h-19.21C718.76,263.24,718.73,263.24,718.69,263.24z"/>
			</g>
			<g>
				<path class="st7" d="M707.31,240.73c-0.24,0-0.44-0.17-0.48-0.41l-0.7-4.44c-0.04-0.27,0.14-0.52,0.41-0.56
					c0.27-0.04,0.52,0.14,0.56,0.41l0.7,4.44c0.04,0.27-0.14,0.52-0.41,0.56C707.36,240.73,707.33,240.73,707.31,240.73z"/>
			</g>
			<g>
				<path class="st7" d="M746.31,225.64c-0.11,0-0.22-0.04-0.32-0.12c-0.04-0.03-2.79-2.33-5.95-2.33h-12.49
					c-0.27,0-0.49-0.22-0.49-0.49s0.22-0.49,0.49-0.49h12.49c3.54,0,6.46,2.46,6.58,2.56c0.21,0.17,0.23,0.48,0.06,0.69
					C746.58,225.59,746.45,225.64,746.31,225.64z"/>
			</g>
			<g>
				<path class="st7" d="M725.31,223.2h-5.9c-0.27,0-0.49-0.22-0.49-0.49s0.22-0.49,0.49-0.49h5.9c0.27,0,0.49,0.22,0.49,0.49
					S725.58,223.2,725.31,223.2z"/>
			</g>
			<g>
				<path class="st7" d="M773.61,302.69h-42.45c-0.02,0-0.03,0-0.05,0c-1.44-0.14-4.14-1.17-4.05-4.1l0-0.47
					c0-0.27,0.22-0.49,0.49-0.49c0,0,0,0,0,0c0.27,0,0.49,0.22,0.49,0.49l0,0.48c0,0.01,0,0.01,0,0.02
					c-0.09,2.67,2.84,3.07,3.14,3.1h42.42c0.9,0,1.62-0.27,2.14-0.8c1.01-1.05,0.97-2.76,0.97-2.78c-0.01-0.27,0.2-0.5,0.47-0.5
					c0.27-0.01,0.49,0.2,0.5,0.47c0,0.09,0.05,2.15-1.25,3.49C775.74,302.32,774.78,302.69,773.61,302.69z"/>
			</g>
			<g>
				<path class="st7" d="M773.16,351.36c-0.22,0-0.42-0.15-0.47-0.37c-0.02-0.06-0.35-1.34-1.51-1.34h-37.61
					c-0.12,0.01-1.32,0.09-1.5,1.3c-0.04,0.27-0.29,0.45-0.55,0.41c-0.27-0.04-0.45-0.29-0.41-0.56c0.24-1.64,1.71-2.11,2.45-2.13
					l37.62,0c1.54,0,2.28,1.37,2.45,2.09c0.06,0.26-0.1,0.53-0.36,0.59C773.24,351.36,773.2,351.36,773.16,351.36z"/>
			</g>
		</g>
		<g>
			<rect x="201.54" y="298.65" class="st6" width="5" height="54.05"/>
			<path class="st3" d="M224.31,304.32h-40.56c-2.5,0-4.55-2.05-4.55-4.55v-0.5c0-2.5,2.05-4.55,4.55-4.55h40.56
				c2.5,0,4.55,2.05,4.55,4.55v0.5C228.86,302.27,226.82,304.32,224.31,304.32z"/>
			<path class="st3" d="M237.65,264.86h-25.41c-5.82,0-10.2-5.31-9.1-11.03l4.14-21.48c0.84-4.37,4.66-7.52,9.1-7.52h24.65
				c5.69,0,10.04,5.09,9.16,10.72l-3.37,21.48C246.1,261.54,242.21,264.86,237.65,264.86z"/>
			<g>
				
					<rect x="188.52" y="268.65" transform="matrix(0.3848 -0.923 0.923 0.3848 -116.9198 368.0667)" class="st3" width="58.29" height="6.19"/>
			</g>
			<path class="st6" d="M223.1,354.7h-38.14c-0.94,0-1.71-0.77-1.71-1.72l0,0c0-0.94,0.77-1.72,1.71-1.72h38.14
				c0.94,0,1.71,0.77,1.71,1.72l0,0C224.82,353.93,224.05,354.7,223.1,354.7z"/>
			<ellipse class="st6" cx="191.09" cy="358.6" rx="3.89" ry="3.9"/>
			<ellipse class="st6" cx="217.72" cy="358.6" rx="3.89" ry="3.9"/>
			<g>
				<path class="st7" d="M237.72,265.35c-0.05,0-0.07,0-0.08,0l-19.2,0c-0.27,0-0.49-0.22-0.49-0.49s0.22-0.49,0.49-0.49h19.21
					c0.29,0.01,6.88,0.11,8.68-7.44l1.83-11.67c0.04-0.27,0.29-0.45,0.56-0.41c0.27,0.04,0.45,0.29,0.41,0.56l-1.83,11.69
					c0,0.01,0,0.02-0.01,0.04c-1.03,4.36-3.6,6.36-5.57,7.27C239.81,265.3,238.11,265.35,237.72,265.35z"/>
			</g>
			<g>
				<path class="st7" d="M249.11,242.84c-0.03,0-0.05,0-0.08-0.01c-0.27-0.04-0.45-0.29-0.41-0.56l0.7-4.44
					c0.04-0.27,0.29-0.45,0.56-0.41c0.27,0.04,0.45,0.29,0.41,0.56l-0.7,4.44C249.55,242.67,249.35,242.84,249.11,242.84z"/>
			</g>
			<g>
				<path class="st7" d="M210.11,227.76c-0.14,0-0.28-0.06-0.37-0.17c-0.17-0.21-0.15-0.51,0.06-0.69c0.12-0.1,3.05-2.56,6.58-2.56
					h12.49c0.27,0,0.49,0.22,0.49,0.49c0,0.27-0.22,0.49-0.49,0.49h-12.49c-3.18,0-5.92,2.3-5.95,2.33
					C210.33,227.72,210.22,227.76,210.11,227.76z"/>
			</g>
			<g>
				<path class="st7" d="M237.01,225.31h-5.9c-0.27,0-0.49-0.22-0.49-0.49c0-0.27,0.22-0.49,0.49-0.49h5.9
					c0.27,0,0.49,0.22,0.49,0.49C237.5,225.09,237.28,225.31,237.01,225.31z"/>
			</g>
			<g>
				<path class="st7" d="M225.26,304.81h-42.45c-1.18,0-2.13-0.37-2.84-1.1c-1.3-1.34-1.25-3.4-1.25-3.49
					c0.01-0.27,0.23-0.48,0.5-0.47c0.27,0.01,0.48,0.23,0.47,0.5c0,0.02-0.03,1.75,0.98,2.78c0.52,0.53,1.24,0.8,2.14,0.8h42.43
					c0.3-0.03,3.23-0.43,3.14-3.1c0-0.01,0-0.01,0-0.02l0-0.48c0-0.27,0.22-0.49,0.49-0.49c0,0,0,0,0,0c0.27,0,0.49,0.22,0.49,0.49
					l0,0.47c0.09,2.93-2.61,3.96-4.05,4.1C225.29,304.8,225.28,304.81,225.26,304.81z"/>
			</g>
			<g>
				<path class="st7" d="M183.25,353.47c-0.04,0-0.08,0-0.11-0.01c-0.26-0.06-0.42-0.33-0.36-0.59c0.17-0.72,0.91-2.09,2.45-2.09
					h37.61c0.75,0.02,2.22,0.49,2.46,2.13c0.04,0.27-0.14,0.52-0.41,0.56c-0.27,0.04-0.52-0.14-0.55-0.41
					c-0.18-1.25-1.46-1.3-1.51-1.3l-37.59,0c-1.17,0-1.5,1.33-1.5,1.34C183.67,353.32,183.47,353.47,183.25,353.47z"/>
			</g>
		</g>
		<path class="st9" d="M270.14,201.39c0,0,0.9-2.07,1.05-3.22c0.15-1.15,0.23-2.32,0.9-3.36c0.68-1.04,1.66-1.78,2.79-2.77
			c1.13-0.98,1.66,1.82,2.56,3.62c0.9,1.8,0.21,4.22-0.51,4.97c-0.72,0.74-1.7,0.23-2.93,0.75
			C272.78,201.92,270.52,203.65,270.14,201.39z"/>
		<path class="st10" d="M285.73,209.26c0,0-6.74,4.78-12.07,20.83c-5.14,15.48-4.8,16.1-6.02,12.35
			c-0.04-6.12,3.31-25.82,4.92-31.25c1.61-5.43,3.66-9.81,3.66-9.81l-7.02-1.72c0,0-19.86,44.17-9.47,57.99
			c10.39,13.82,34.11-25.35,37.27-31.42C300.16,220.15,305.58,201.26,285.73,209.26z"/>
		<path class="st2" d="M275.95,367.12v7.9h-21.17c0,0,1.92-4.85,7.12-5.39c5.2-0.54,8.08,0.05,9.43-2.52
			C272.68,364.55,275.95,367.12,275.95,367.12z"/>
		<path class="st2" d="M313.48,369.24v5.78h-22.66c0,0,2.06-4.85,7.62-5.39c5.56-0.54,8.65,0.05,10.09-2.52
			C309.98,364.55,313.48,369.24,313.48,369.24z"/>
		<path class="st11" d="M274.14,292.56l31.08,76.39h8.26l-17.87-78.78C295.61,290.17,282.76,272.25,274.14,292.56z"/>
		<path class="st12" d="M345.06,275.65c0,0,4.46,12.73-2.61,22.79h-67.38l0.85,70.26l-7.65,0.25c0,0-16.97-70.85-14.43-81.38
			c2.54-10.53,11.75-13.22,26.75-14.34s24.73-2.62,35.81-4C327.47,267.86,339.12,269.34,345.06,275.65z"/>
		<path class="st13" d="M283.04,220.13c-0.96-5.35,1.21-10.83,5.27-13.17c4.34-2.51,10.1-5.04,14.92-4.44
			c9.05,1.13,21.62,10.4,30.68,32.33c9.05,21.93,12.1,44.18,12.1,44.18c-6.08-3.52-19.54-8.86-34.3-9.04
			C311.71,269.98,288.56,250.73,283.04,220.13z"/>
		<path class="st13" d="M300.79,208.21c0,0-9.81,36.13-12.16,38.73s-37.26,6.65-37.26,6.65v6.68c0,0,46.86,1.3,47.93,0
			c1.07-1.3,15.58-31.9,17.92-36.85C319.57,218.45,318.5,201.22,300.79,208.21z"/>
		<path class="st9" d="M293.93,190.73c0.29,7.98-6.82,14.45-12.21,14.45c-5.71-0.49-8.72-6.85-8.47-14.45
			c0.26-7.98,5.77-13.99,11.14-14.45C289.49,175.84,293.62,182.27,293.93,190.73z"/>
		<path class="st9" d="M286.11,199.29l5.28,10.42c0,0,4.98-0.03,7.34-3.61l-5.59-10.97l-7.03,3.7V199.29z"/>
		<path class="st9" d="M253.24,254.7c0,0-3.72,0.03-5.07-0.46c-1.35-0.5-5.8-0.13-7.17,1.01c-1.38,1.14-3.93,3.79-4.4,4.63
			c-0.47,0.83,0.58,1.47,1,1.04c0.42-0.43,2.6-3.26,3.82-3.37c1.22-0.11,4.45-0.08,4.46,0.45c0.01,0.53-2.66,1.07-3.44,1.56
			c-0.78,0.49-0.76,1.26-0.34,1.25c0.43-0.01,2.67-0.66,3.4-0.59c0.73,0.07,2.88,0.44,3.79,0.41c0.92-0.02,3.36-2.27,4.39-2.47
			S256.37,255.45,253.24,254.7z"/>
		<g>
			<path class="st3" d="M308.47,260.84c-0.66,0.08-1.34-0.23-1.7-0.84c-8.77-14.8-13.66-26.93-15.7-36.99
				c-1.56-7.69-0.34-10.46-0.21-10.81l0.59,0.36l0.48-0.08c-0.01,0.03,0.13,3.35,1.67,10.48c1.42,6.6,5.71,17.67,16.15,35.29
				c0.49,0.82,0.22,1.89-0.61,2.38C308.94,260.74,308.71,260.82,308.47,260.84z"/>
		</g>
		<g>
			<path class="st13" d="M297.08,221.46c0,0-6.83,24.66-8.45,25.48c-1.62,0.82-14.95,3.94-37.26,6.65v6.68c0,0,46.49,1.01,47.93,0
				c1.44-1.01,14.74-30.14,14.74-30.14L297.08,221.46z"/>
			<path class="st7" d="M286.18,261.04c-3.04,0-6.78-0.02-11.39-0.07c-11.67-0.12-23.31-0.38-23.43-0.38l-0.32-0.01v-7.28l0.29-0.03
				c22.25-2.7,35.59-5.82,37.15-6.61c0.22-0.13,1.2-1.46,4.69-12.93c1.88-6.17,3.58-12.29,3.59-12.35c0.05-0.17,0.23-0.27,0.4-0.23
				c0.17,0.05,0.27,0.23,0.23,0.4c-0.02,0.06-1.73,6.24-3.62,12.44c-3.86,12.67-4.66,13.07-5,13.24
				c-1.64,0.83-14.62,3.91-37.08,6.64v6.07c18.45,0.4,46.07,0.73,47.43,0.05c1.02-0.76,9.3-18.36,14.62-30
				c0.07-0.16,0.27-0.24,0.43-0.16c0.16,0.07,0.24,0.27,0.16,0.43c-1.36,2.99-13.38,29.24-14.85,30.27
				C299.27,260.68,298.76,261.04,286.18,261.04z"/>
		</g>
		<g>
			<path class="st14" d="M342.62,298.77h-67.64l-3.39-1.97c-0.16-0.09-0.21-0.29-0.12-0.45c0.09-0.16,0.29-0.21,0.44-0.12l3.24,1.88
				h67.12c6.01-9.17,3.44-18.27,3.41-18.36c-0.05-0.17,0.05-0.35,0.22-0.4c0.17-0.05,0.35,0.05,0.4,0.22c0.03,0.1,0.7,2.42,0.6,5.94
				c-0.09,3.25-0.89,8.16-4.19,13.11L342.62,298.77z"/>
		</g>
		<g>
			<path class="st14" d="M276.18,369.28c-0.18,0-0.32-0.14-0.33-0.32l-0.83-71.14l-2.85,0.72c-0.17,0.04-0.35-0.06-0.4-0.24
				c-0.04-0.17,0.06-0.35,0.24-0.4l3.65-0.92l0.84,71.96C276.51,369.13,276.37,369.28,276.18,369.28
				C276.18,369.28,276.18,369.28,276.18,369.28z"/>
		</g>
		<path class="st15" d="M288.96,189.72c-0.4,0.36-1.02,0.18-1.07-0.35c-0.11-1.11-0.49-2.5-1.55-3.58
			c-2.09-2.11-11.55-2.26-13.44-8.29c-1.9-6.03,2.47-10.1,2.77-9.04c0.3,1.06-0.9,2.67,1.36,3.67c2.26,1,11.14-1.11,14.76,3.26
			c3.61,4.37,6.87,8.91,4.52,14.47c-2.35,5.56-2.86,8.31-5.87,9.5c-3.01,1.19-3.03-0.76-1.87-2c1.16-1.23,3.95-3.1,4.38-5.31
			C293.36,189.82,291.93,187.06,288.96,189.72z"/>
		<path class="st3" d="M293.53,211.24c0,0.84-0.87,1.53-1.95,1.53s-1.95-0.68-1.95-1.53c0-0.84,0.87-1.53,1.95-1.53
			S293.53,210.4,293.53,211.24z"/>
		<g>
			<path class="st16" d="M292.06,194.57c-1.03,2.87-3.79,4.52-6.16,3.67c-2.38-0.84-3.47-3.86-2.45-6.73
				c1.03-2.87,3.79-4.52,6.16-3.67C291.99,188.68,293.09,191.69,292.06,194.57z"/>
			
				<ellipse transform="matrix(0.3392 -0.9407 0.9407 0.3392 8.3111 397.3842)" class="st7" cx="287.02" cy="192.78" rx="5.52" ry="4.29"/>
			<g>
				<path class="st7" d="M287.31,193.03c-0.41,0-0.79-0.26-0.93-0.67c-0.17-0.51,0.1-1.06,0.6-1.23c0.1-0.04,4.75-1.95,6.15-13.27
					c0.07-0.54,0.55-0.92,1.09-0.85c0.54,0.07,0.92,0.56,0.85,1.09c-1.59,12.77-7.22,14.8-7.46,14.88
					C287.52,193.01,287.41,193.03,287.31,193.03z"/>
			</g>
			<g>
				<path class="st7" d="M277.25,199.54c-0.11,0-0.21,0-0.32,0c-0.18,0-0.32-0.15-0.32-0.33c0-0.18,0.15-0.32,0.33-0.32
					c0,0,0,0,0.01,0c6.31,0.12,9.4-3.39,9.43-3.43c0.12-0.14,0.32-0.15,0.46-0.04c0.14,0.12,0.15,0.32,0.04,0.46
					C286.74,196.04,283.67,199.54,277.25,199.54z"/>
			</g>
			<path class="st7" d="M277.6,199.26c-0.03,0.52-0.74,0.89-1.58,0.84c-0.84-0.05-1.49-0.52-1.46-1.03
				c0.03-0.52,0.74-0.89,1.58-0.84C276.98,198.28,277.63,198.74,277.6,199.26z"/>
			<g>
				<path class="st14" d="M286.07,198.3c-0.24,0-0.38-0.02-0.38-0.02c-0.09-0.01-0.15-0.09-0.14-0.18c0.01-0.09,0.09-0.15,0.18-0.14
					c0.03,0,2.65,0.3,4.13-1.89c0.05-0.07,0.15-0.09,0.23-0.04c0.07,0.05,0.09,0.15,0.04,0.23
					C288.89,198.09,286.9,198.3,286.07,198.3z"/>
			</g>
			<g>
				<path class="st14" d="M290.57,195.46c-0.03,0-0.05-0.01-0.08-0.02c-0.08-0.04-0.11-0.14-0.07-0.22c0.01-0.01,0.5-0.95,0.64-1.54
					c0.02-0.09,0.11-0.14,0.2-0.12c0.09,0.02,0.14,0.11,0.12,0.2c-0.14,0.63-0.65,1.58-0.67,1.62
					C290.68,195.43,290.63,195.46,290.57,195.46z"/>
			</g>
			<g>
				<path class="st14" d="M291.43,192.82c-0.01,0-0.02,0-0.03,0c-0.09-0.02-0.15-0.1-0.13-0.19c0.2-1.01-0.24-2.48-0.24-2.5
					c-0.03-0.09,0.02-0.18,0.11-0.2c0.09-0.03,0.18,0.02,0.2,0.11c0.02,0.06,0.46,1.56,0.25,2.65
					C291.57,192.76,291.5,192.82,291.43,192.82z"/>
			</g>
		</g>
		<g>
			<path class="st9" d="M130.03,243.49c0,0-3.24,0.33-4.46,0.01c-1.22-0.32-5.06,0.35-6.17,1.46c-1.11,1.11-3.12,3.62-3.46,4.39
				c-0.34,0.76,0.63,1.23,0.96,0.83c0.33-0.41,2-3.05,3.06-3.24s3.87-0.43,3.92,0.03c0.05,0.46-2.23,1.15-2.87,1.64
				c-0.64,0.49-0.56,1.16-0.19,1.12c0.37-0.04,2.27-0.79,2.91-0.79c0.64,0,2.54,0.15,3.34,0.05c0.8-0.09,2.74-2.24,3.63-2.5
				C131.58,246.21,132.81,243.89,130.03,243.49z"/>
			<path class="st13" d="M176.04,197.02c-2.53,0.73-5.35,2.58-6.49,5.08c-4.04,8.84-10.28,33.35-12.21,35.29
				c-2.42,2.43-27.95,5.57-27.95,5.57l-0.09,5.4c0,0,34.14,2.44,35.83,1.88c2.12-0.27,14.84-23.06,17.97-29.45
				C186.01,214.85,195.81,191.31,176.04,197.02z"/>
			<path class="st2" d="M128.75,350.49v6h-17.02c0,0,1.55-3.68,5.72-4.09c4.18-0.41,6.5,0.04,7.58-1.91
				C126.12,348.54,128.75,350.49,128.75,350.49z"/>
			<path class="st2" d="M169.26,350.7v5.79h-17.02c0,0,1.55-3.55,5.72-3.95c4.18-0.4,6.5,0.04,7.58-1.84
				C166.63,348.81,169.26,350.7,169.26,350.7z"/>
			<path class="st11" d="M207.57,294.79h-24.88c0,0-14.27-7.46-22.4-10.97c-8.13-3.52-4.81-0.35-4.81-0.35l-26.72,68.66l-5.8-0.16
				c-1.47,0,15.8-69.67,17.75-75.19c1.94-5.52,4.16-12.14,14.78-12.32C166.09,264.29,207.57,294.79,207.57,294.79z"/>
			<path class="st12" d="M222.19,267.38c0,0,2.48,4.89,1.01,11.7c-1.47,6.81-8.69,18.74-22.38,15.16
				c-13.69-3.58-35.71-12.68-35.71-12.68l4.22,70.61l-5.83-0.05c0,0-16.07-71.31-16.02-75.42c0.05-4.11-1.36-15.23,10.57-16.67
				C169.97,258.59,222.19,267.38,222.19,267.38z"/>
			<polygon class="st17" points="174.33,187.9 178.49,195.92 185.82,192.55 180.07,181.7 			"/>
			<path class="st13" d="M167.05,215.89c-0.58-7.23,2.29-18,9.76-20.52c0.93-0.32,2.62-0.69,3.69-0.92
				c9.78-2.08,17.74-3.19,25.36,10.39c7.62,13.58,16.52,56.88,18.08,67.61c-15.47-5.9-20.41-8.73-30.71-10.13
				c0,0-10.93-17.94-16.31-24.33C172.72,232.98,167.93,226.93,167.05,215.89z"/>
			<path class="st9" d="M183.68,177.87c-2.32,7.43-7.44,13.45-12.15,13.45c-5.4,0-7.42-4.53-7.42-13.45
				c0-7.43,5.94-13.45,11.35-13.45S185.87,170.85,183.68,177.87z"/>
			<g>
				<path class="st7" d="M163.46,250.64c-7.3,0-32.97-1.87-34.19-1.96c-0.18-0.01-0.31-0.17-0.3-0.35c0.01-0.18,0.17-0.31,0.35-0.3
					c0.33,0.02,33.05,2.4,35.74,1.89c0.55-0.11,2.19-1.51,7-9.71c3.15-5.37,6.62-11.87,9.15-16.61c0.58-1.09,1.12-2.09,1.59-2.96
					c0.09-0.16,0.28-0.22,0.44-0.13c0.16,0.09,0.22,0.28,0.13,0.44c-0.47,0.87-1,1.87-1.59,2.96
					c-7.07,13.23-14.18,26.19-16.61,26.65C164.9,250.61,164.3,250.64,163.46,250.64z"/>
			</g>
			<path class="st15" d="M204.52,213.75c3.92-3.92,1.71-9.18-1.61-11.65c-3.31-2.47-0.55-7.37-0.65-11.28
				c-0.1-3.92-4.97-5.42-8.09-3.56c-3.11,1.86-8.98-0.72-8.03-5.26c0.95-4.54-0.95-12.58-0.95-12.58l0.14,0.08
				c-2.35-4.31-7.21-7.54-17.46-5.7c0,0-4.86,0.78-4.39,6.5c0.47,5.72,6.65,7.07,8.91,7.17c2.26,0.1,6.78,3.97,3.76,9.07
				c-3.01,5.1-6.26,9.74-2.45,15.16c3.81,5.41,11.32,4.38,13.44,8.99c0.6,1.98-1.35,2.91-0.89,6.78l3.94,4.59
				C195.94,227.86,200.61,217.67,204.52,213.75z"/>
			<path class="st18" d="M186.77,218.78c2.01,4.84,6.85,7.83,11.95,7.28c3.74-0.4,7.72-1.78,10.11-4.25
				c4.97-5.11,7.38-14.86,4.97-20.12c-2.41-5.26-8.7-5.85-8.57-8.49c0.14-2.64,0.14-7.07-3.43-9.24
				c-3.57-2.17-13.63,2.57-14.07-2.22c-0.22-2.41-0.03-7.88-2.41-12.24l-0.14-0.08c0,0,1.9,8.04,0.95,12.58
				c-0.95,4.54,4.92,7.11,8.03,5.26c3.11-1.86,7.99-0.36,8.09,3.56c0.1,3.92-2.67,8.81,0.65,11.28c3.31,2.47,5.52,7.73,1.61,11.65
				c-3.92,3.92-8.99,12.84-14.73,7.04l-3.54-3.33C186.44,217.95,186.61,218.39,186.77,218.78z"/>
			
				<ellipse transform="matrix(0.2423 -0.9702 0.9702 0.2423 -42.1182 309.618)" class="st16" cx="177.16" cy="181.77" rx="5.6" ry="4.51"/>
			
				<ellipse transform="matrix(0.2492 -0.9685 0.9685 0.2492 -43.3717 307.1672)" class="st7" cx="176.42" cy="181.56" rx="5.6" ry="4.24"/>
			<g>
				<path class="st7" d="M177.05,181.7l-0.78-1.79l-0.02,0.01c0.05-0.02,4.56-2.33,5.23-14.5c0.03-0.54,0.49-0.95,1.03-0.92
					c0.54,0.03,0.95,0.49,0.92,1.03C182.68,179.08,177.28,181.6,177.05,181.7z"/>
			</g>
			<g>
				<path class="st7" d="M166.91,189.07c-0.17,0-0.32-0.14-0.32-0.31c-0.01-0.18,0.13-0.33,0.31-0.34c6.21-0.3,9.03-4.06,9.05-4.09
					c0.11-0.15,0.31-0.18,0.45-0.07c0.15,0.11,0.18,0.31,0.07,0.45c-0.12,0.17-3.01,4.05-9.55,4.36
					C166.92,189.07,166.91,189.07,166.91,189.07z"/>
			</g>
			<path class="st7" d="M167.56,188.75c0,0.53-0.67,0.95-1.5,0.95c-0.83,0-1.5-0.43-1.5-0.95s0.67-0.95,1.5-0.95
				C166.89,187.79,167.56,188.22,167.56,188.75z"/>
			<g>
				<path class="st14" d="M175.57,187.23c-0.07,0-0.1,0-0.11,0c-0.09-0.01-0.16-0.08-0.15-0.17c0.01-0.09,0.09-0.16,0.17-0.15
					c0.03,0,2.63,0.13,3.94-2.18c0.04-0.08,0.14-0.11,0.22-0.06c0.08,0.04,0.11,0.14,0.06,0.22
					C178.44,187.1,176.09,187.23,175.57,187.23z"/>
			</g>
			<g>
				<path class="st14" d="M180.07,184.05c-0.02,0-0.04,0-0.06-0.01c-0.08-0.04-0.12-0.13-0.08-0.21c0-0.01,0.43-1,0.53-1.61
					c0.01-0.09,0.1-0.15,0.19-0.14c0.09,0.01,0.15,0.1,0.14,0.19c-0.1,0.65-0.53,1.64-0.55,1.69
					C180.2,184.01,180.14,184.05,180.07,184.05z"/>
			</g>
			<g>
				<path class="st14" d="M180.75,181.31c-0.01,0-0.01,0-0.02,0c-0.09-0.01-0.15-0.09-0.14-0.18c0.13-1.04-0.39-2.51-0.4-2.52
					c-0.03-0.08,0.01-0.18,0.1-0.21c0.08-0.03,0.18,0.01,0.21,0.1c0.02,0.06,0.56,1.56,0.42,2.67
					C180.9,181.25,180.83,181.31,180.75,181.31z"/>
			</g>
			<g>
				<path class="st7" d="M206.05,295.12c-3.51,0-13.74-1.58-41.07-13.41l-0.1-0.04l-2.37-4.22c-0.09-0.16-0.03-0.36,0.12-0.44
					c0.16-0.09,0.36-0.03,0.44,0.12l2.26,4.03c36.16,15.64,42.04,13.19,42.09,13.17l0.04-0.02l0.04-0.01
					c7.07-1.26,11.89-5.3,14.31-12.01c1.61-4.46,1.56-8.69,1.53-9.62c-12.75-5.83-34.21-10.44-34.43-10.48
					c-0.18-0.04-0.29-0.21-0.25-0.39c0.04-0.18,0.21-0.29,0.39-0.25c0.22,0.05,21.95,4.71,34.74,10.61l0.18,0.08l0.01,0.19
					c0.01,0.2,0.3,4.9-1.55,10.06c-1.72,4.78-5.68,10.81-14.78,12.45C207.51,294.99,207.05,295.12,206.05,295.12z"/>
			</g>
			<g>
				<path class="st7" d="M169.33,346.53c-0.17,0-0.31-0.13-0.32-0.3l-4.21-65.79l-4.1-0.82c-0.18-0.04-0.29-0.21-0.26-0.38
					c0.04-0.18,0.21-0.29,0.38-0.26l4.59,0.92l4.24,66.29c0.01,0.18-0.12,0.33-0.3,0.35C169.34,346.53,169.33,346.53,169.33,346.53z
					"/>
			</g>
		</g>
		<g>
			<g>
				<g>
					<rect x="35.05" y="219.28" class="st19" width="1.63" height="20.01"/>
				</g>
				<g>
					<path class="st19" d="M35.96,232.56h-5.76c-1.76,0-3.4-0.89-4.61-2.5c-1.16-1.55-1.8-3.59-1.8-5.75l0-3.38l1.63,0l0,3.38
						c0,1.81,0.52,3.5,1.47,4.77c0.9,1.2,2.08,1.85,3.31,1.85h5.76V232.56z"/>
				</g>
				<g>
					<path class="st19" d="M40.61,227.82h-4.74v-1.63h4.74c0.97,0,1.9-0.52,2.61-1.47c0.76-1.02,1.19-2.38,1.18-3.84l0-2.78l1.63,0
						l0,2.78c0,1.81-0.54,3.52-1.51,4.82C43.49,227.06,42.1,227.82,40.61,227.82z"/>
				</g>
				<path class="st20" d="M44.52,200.65c-0.03-1.49-0.03-3.21-0.03-4.11c0-0.05,0-0.1,0-0.15c0-0.03,0-0.07,0-0.1
					c0-0.23,0-0.37,0-0.37l-0.01,0.02c-0.24-5.07-4.49-9.11-9.7-9.11c-5.36,0-9.71,4.28-9.71,9.57c0,0.64,0.06,1.26,0.19,1.86
					c-3.33,2.07-5.59,5.67-5.75,9.8c-2.92,1.65-4.89,4.75-4.89,8.31c0,5.29,4.35,9.57,9.71,9.57c2.78,0,5.28-1.15,7.05-2.99
					c6.2,0.19,8.68,0.27,9.68,0.3c0.22,0.01,0.44,0.02,0.67,0.02c0,0,0,0,0,0c6.28,0,11.37-5.01,11.37-11.2
					c0-4.96-3.27-9.17-7.81-10.64L44.52,200.65z"/>
				<polygon class="st3" points="25.04,238.12 46.03,238.12 43.39,250.79 28,250.79 				"/>
				<g>
					<path class="st14" d="M24.32,226.17c-5.49,0-9.96-4.4-9.96-9.81c0-3.46,1.87-6.69,4.9-8.45c0.2-3.97,2.32-7.6,5.71-9.77
						c-0.1-0.58-0.16-1.16-0.16-1.74c0-0.13,0.11-0.24,0.24-0.24c0.13,0,0.24,0.11,0.24,0.24c0,0.6,0.06,1.21,0.18,1.81l0.03,0.17
						l-0.14,0.09c-3.38,2.1-5.48,5.68-5.63,9.6l-0.01,0.14l-0.12,0.07c-2.94,1.66-4.77,4.76-4.77,8.09c0,5.14,4.25,9.33,9.47,9.33
						c2.63,0,5.07-1.04,6.88-2.92l0.08-0.08l9.79,0.3c0.25,0.01,0.46,0.02,0.66,0.02c6.13,0,11.13-4.91,11.13-10.96
						c0-0.13,0.11-0.24,0.24-0.24c0.13,0,0.24,0.11,0.24,0.24c0,6.31-5.21,11.44-11.61,11.44c-0.21,0-0.43-0.01-0.68-0.02l-9.56-0.3
						C29.58,225.11,27.05,226.17,24.32,226.17z"/>
				</g>
			</g>
			<g>
				<path class="st6" d="M5.57,260.1h169.56c1.71,0,3.09-1.38,3.09-3.09l0,0c0-1.71-1.38-3.09-3.09-3.09H5.57
					c-1.71,0-3.09,1.38-3.09,3.09l0,0C2.48,258.71,3.87,260.1,5.57,260.1z"/>
				<path class="st6" d="M5.94,366.11l16.1-108.67l-10.11-1.22L1.69,365.6c-0.19,1.55,0.61,2.92,1.78,3.07l0,0
					C4.65,368.81,5.75,367.66,5.94,366.11z"/>
				<path class="st6" d="M177.29,366.11l-16.1-108.67l10.11-1.22l10.24,109.38c0.19,1.55-0.61,2.92-1.78,3.07l0,0
					C178.58,368.81,177.48,367.66,177.29,366.11z"/>
				<path class="st21" d="M3.09,257.01h175.07c1.71,0,3.09-1.38,3.09-3.09l0,0c0-1.71-1.38-3.09-3.09-3.09H3.09
					c-1.71,0-3.09,1.38-3.09,3.09l0,0C0,255.62,1.38,257.01,3.09,257.01z"/>
			</g>
			<g>
				<path class="st6" d="M113.16,270.29h169.56c1.71,0,3.09-1.38,3.09-3.09l0,0c0-1.71-1.38-3.09-3.09-3.09H113.16
					c-1.71,0-3.09,1.38-3.09,3.09l0,0C110.07,268.9,111.45,270.29,113.16,270.29z"/>
				<path class="st6" d="M113.52,376.3l16.1-108.67l-10.11-1.22l-10.24,109.38c-0.19,1.55,0.61,2.92,1.78,3.07l0,0
					C112.23,379,113.33,377.85,113.52,376.3z"/>
				<path class="st6" d="M284.87,376.3l-16.1-108.67l10.11-1.22l10.24,109.38c0.19,1.55-0.61,2.92-1.78,3.07l0,0
					C286.16,379,285.06,377.85,284.87,376.3z"/>
				<path class="st21" d="M110.68,267.2h175.07c1.71,0,3.09-1.38,3.09-3.09l0,0c0-1.71-1.38-3.09-3.09-3.09H110.68
					c-1.71,0-3.09,1.38-3.09,3.09l0,0C107.59,265.81,108.97,267.2,110.68,267.2z"/>
			</g>
		</g>
		<g>
			<path class="st22" d="M710.87,256.05c0,0,3.06-0.05,4.17-0.5c1.1-0.45,4.77-0.24,5.92,0.71s3.31,3.16,3.71,3.86
				c0.4,0.7-0.45,1.27-0.8,0.91c-0.35-0.36-2.21-2.73-3.21-2.8c-1-0.07-3.66,0.02-3.66,0.48c0,0.46,2.21,0.86,2.86,1.26
				s0.65,1.06,0.3,1.06s-2.21-0.51-2.81-0.43s-2.36,0.43-3.11,0.43c-0.75,0-2.81-1.86-3.66-2.02
				C709.72,258.87,708.31,256.76,710.87,256.05z"/>
			<path class="st10" d="M658.05,208.22c0,0,15.72,36.97,18.26,37.9c2.54,0.93,35.66,9.19,35.66,9.19v5.28
				c0,0-41.79-2.43-44.05-3.46c-2.27-1.03-30.56-33.64-32.54-41.68C633.39,207.42,642.7,197.54,658.05,208.22z"/>
			<path class="st2" d="M666.31,367.05v4.65h15.21c0,0-1.38-3.9-5.12-4.33c-3.73-0.43-5.81,0.04-6.78-2.02
				C668.66,363.28,666.31,367.05,666.31,367.05z"/>
			<path class="st2" d="M687.25,367.05v4.65h15.21c0,0-1.38-3.9-5.12-4.33c-3.73-0.43-5.81,0.04-6.78-2.02
				C689.6,363.28,687.25,367.05,687.25,367.05z"/>
			<path class="st11" d="M671.01,295.65l16.23,71.03h4.78c0,0-0.95-64.13-5.21-71.03C682.56,288.75,678.47,282.71,671.01,295.65z"/>
			<path class="st12" d="M616.52,267.46c0,0-1.19,8.78,1.36,17.98s5.15,12.65,9.05,13l53.92,0.34l-14.47,67.9h5.11
				c0,0,28.65-60.1,28.08-73.62s-32.49-20.91-54.61-22.92C622.85,268.13,616.52,267.46,616.52,267.46z"/>
			<path class="st9" d="M668.6,182.74c0.75,8.08-1.88,14.74-9.01,13.66c-5.56-0.84-12.46-6.12-12.46-13.66
				c0-7.54,4.47-13.26,10.1-13.26C662.84,169.48,667.9,175.23,668.6,182.74z"/>
			<polygon class="st22" points="652.21,186.33 644.84,198.5 652.21,202.03 659.49,189 			"/>
			<path class="st13" d="M624.63,208.89c2.95-5.95,8.41-10.38,15-11.87c2.62-0.59,5.52-0.74,8.51-0.02
				c10.64,2.56,23,13.81,20.44,24.64c-2.57,10.83-5.28,14.05-10.73,20.43c-5.44,6.38-13.86,28.08-13.86,28.08l-27.75,1.62
				C616.25,271.77,611.33,235.75,624.63,208.89z"/>
			<g>
				<path class="st15" d="M662.08,168.18c-8.73-0.86-13.25,1.97-14.97,4.9c-2.65,5.98-0.95,11.41-5.91,15.56
					c-4.97,4.15-19.55,4.08-16.56,20.25c2.24,12.14,11.5,12.68,15.96,12.2c4.67-3.55,1.71-10.98,3.97-13.76
					c2.59-3.19,11.38-1.62,11.81-10.3c0.43-8.68-4.15-11.82,5.7-14.08c4.31-0.99,6.12-3.26,6.67-5.69
					C669.73,172.87,666.55,168.62,662.08,168.18z"/>
				<path class="st18" d="M624.63,208.89c-2.99-16.16,11.6-16.09,16.56-20.25c4.97-4.15,3.26-9.58,5.91-15.56
					c-0.21,0.36-0.38,0.72-0.51,1.08c-1.35,3.75-5.99,10.52-16.59,13.74c-10.6,3.22-14.35,12.03-12.37,19.11
					c1.98,7.09,12.12,17.91,20.36,15.36c1.05-0.33,1.9-0.76,2.59-1.28C636.13,221.57,626.88,221.02,624.63,208.89z"/>
			</g>
			<g>
				
					<ellipse transform="matrix(0.9685 -0.2492 0.2492 0.9685 -25.3616 169.6516)" class="st16" cx="657.36" cy="184.99" rx="4.43" ry="5.46"/>
				<path class="st7" d="M662.08,183.62c-0.81-2.91-3.26-4.74-5.46-4.1c-2.21,0.64-3.34,3.52-2.52,6.42s3.26,4.74,5.46,4.1
					C661.76,189.4,662.89,186.52,662.08,183.62z"/>
				<g>
					<path class="st7" d="M657.85,185.02c-0.13,0-0.26-0.03-0.39-0.08c-0.23-0.1-5.54-2.56-6.27-15.78c-0.03-0.54,0.38-1,0.92-1.03
						c0.54-0.03,1,0.38,1.03,0.92c0.66,11.84,5.06,14.08,5.1,14.1c0.49,0.22,0.72,0.79,0.51,1.29
						C658.59,184.8,658.23,185.02,657.85,185.02z"/>
				</g>
				<g>
					<path class="st7" d="M667.41,192.11c-0.01,0-0.01,0-0.02,0c-6.42-0.31-9.25-4.09-9.37-4.25c-0.11-0.15-0.07-0.35,0.07-0.46
						c0.14-0.11,0.35-0.07,0.45,0.07c0.03,0.04,2.79,3.7,8.87,3.99c0.18,0.01,0.32,0.16,0.31,0.34
						C667.73,191.98,667.59,192.11,667.41,192.11z"/>
				</g>
				<ellipse class="st7" cx="668.24" cy="191.79" rx="1.47" ry="0.93"/>
				<g>
					<path class="st14" d="M658.92,190.31c-0.52,0-2.82-0.13-4.06-2.29c-0.04-0.08-0.02-0.18,0.06-0.22
						c0.08-0.04,0.18-0.02,0.22,0.06c1.29,2.26,3.83,2.13,3.86,2.13c0.09,0,0.17,0.06,0.17,0.15c0.01,0.09-0.06,0.17-0.15,0.17
						C659.02,190.31,658.99,190.31,658.92,190.31z"/>
				</g>
				<g>
					<path class="st14" d="M654.5,187.21c-0.06,0-0.12-0.04-0.15-0.1c-0.02-0.04-0.44-1.01-0.54-1.64
						c-0.01-0.09,0.05-0.17,0.14-0.19c0.09-0.02,0.17,0.05,0.19,0.14c0.09,0.59,0.51,1.55,0.52,1.56c0.04,0.08,0,0.18-0.08,0.21
						C654.55,187.2,654.53,187.21,654.5,187.21z"/>
				</g>
				<g>
					<path class="st14" d="M653.84,184.54c-0.08,0-0.15-0.06-0.16-0.14c-0.14-1.09,0.39-2.55,0.41-2.61
						c0.03-0.08,0.12-0.13,0.21-0.1c0.08,0.03,0.13,0.12,0.1,0.21c-0.01,0.01-0.52,1.44-0.39,2.46c0.01,0.09-0.05,0.17-0.14,0.18
						C653.85,184.54,653.85,184.54,653.84,184.54z"/>
				</g>
			</g>
			<path class="st9" d="M663.14,192.8c0,0,1.56-0.01,2.03-0.76c0.47-0.74,0.09-2.34-0.58-3.1c-0.67-0.77-1.09-2.44-1.08-3.01
				c0-0.58-0.77-1.97-1.6-3.16c-0.83-1.19-2.07-2.69-2.44-2.87c-0.36-0.18-0.44,0.37,0.06,1.05c0.5,0.68,1.46,2.33,1.46,2.58
				c0,0.25-1.58-2.22-2.22-3.01c-0.64-0.79-0.96-0.93-1.19-0.76c-0.23,0.18,2.68,4.66,2.63,4.98c-0.05,0.32-2.63-4.28-2.86-4.8
				c-0.23-0.53-0.68,0.19-0.43,0.95s2.2,3.83,2.12,4.19c-0.08,0.36-1.83-1.91-2.28-2.52s-0.7,0.21-0.48,0.63
				c0.21,0.42,1.66,2.48,2.04,3.22c0.38,0.74-0.36,0.56-1.04,0.2c-0.68-0.36-1.52-0.45-1.6-0.16c-0.08,0.29-0.26,0.4,1.11,1.2
				s1.91,1.81,2.63,2.32c0.73,0.51,1.74,0.63,2.1,1.11C661.89,191.53,662.5,192.56,663.14,192.8z"/>
			<path class="st13" d="M662.29,205.36c4.03,4.32,5.63,7.24,11.23,12.65c8.03,9.82-4.33-11.69-7.61-17.28
				c-3.31-4.95-6.41-9.97-6.41-9.97l4.99-2.12c-0.31-0.44,25.3,25.81,26.38,44.37c-0.37,1.8,0.48,3.09-0.76,3.95
				c-12.63,1.29-30.67-7.5-36.43-13.53c-5.82-6.09-9.52-13.82-2.61-18.27C655.08,202.58,659.17,202,662.29,205.36z"/>
			<g>
				<path class="st7" d="M690.12,237.29C690.12,237.29,690.12,237.29,690.12,237.29c-12.17-0.13-21.49-3.83-27.16-6.9
					c-6.15-3.34-9.47-6.69-9.51-6.73c-0.13-0.13-0.12-0.33,0-0.46c0.13-0.13,0.33-0.12,0.46,0c0.03,0.03,3.3,3.33,9.38,6.62
					c5.6,3.03,14.8,6.68,26.83,6.81c0.18,0,0.32,0.15,0.32,0.33C690.45,237.15,690.3,237.29,690.12,237.29z"/>
			</g>
			<g>
				<path class="st7" d="M676.12,220.22c-0.13,0-0.26-0.08-0.31-0.21c-2.06-5.68-16.43-28.83-16.58-29.07
					c-0.09-0.15-0.05-0.35,0.1-0.45c0.15-0.09,0.35-0.05,0.45,0.1c0.59,0.95,14.55,23.45,16.64,29.19c0.06,0.17-0.03,0.36-0.19,0.42
					C676.19,220.21,676.15,220.22,676.12,220.22z"/>
			</g>
			<g>
				<path class="st2" d="M654.16,299.27c-11.14,0-22.58-0.11-27.25-0.5c-2.49-0.21-4.61-1.79-6.32-4.7
					c-1.34-2.28-2.42-5.38-3.22-9.23c-1.36-6.52-1.44-13.01-1.44-13.07l0-0.31l28.06-1.64c0.18-0.01,0.33,0.13,0.34,0.31
					c0.01,0.18-0.13,0.33-0.31,0.34l-27.43,1.6c0.08,2.91,0.98,25.26,10.38,26.05c10.05,0.85,51.54,0.37,53.8,0.34l3.55-2.28
					c0.15-0.1,0.35-0.05,0.45,0.1c0.1,0.15,0.05,0.35-0.1,0.45l-3.7,2.38l-0.09,0C680.63,299.11,667.6,299.27,654.16,299.27z"/>
			</g>
			<g>
				<path class="st2" d="M666.31,367.37c-0.02,0-0.05,0-0.07-0.01c-0.18-0.04-0.29-0.21-0.25-0.39l14.61-68.53l3.9,0.17
					c0.18,0.01,0.32,0.16,0.31,0.34c-0.01,0.18-0.15,0.32-0.34,0.31l-3.35-0.15l-14.49,67.99
					C666.59,367.27,666.46,367.37,666.31,367.37z"/>
			</g>
		</g>
		<g>
			<path class="st2" d="M803.84,349.84v5.99h17.63c0,0-1.6-3.67-5.93-4.08c-4.33-0.41-6.73,0.04-7.85-1.91
				C806.56,347.89,803.84,349.84,803.84,349.84z"/>
			<path class="st2" d="M847.19,329.23l2.45,5.47l16.01-7.2c0,0-2.96-2.7-7.06-1.31c-4.1,1.39-6.1,2.78-7.91,1.47
				S847.19,329.23,847.19,329.23z"/>
			<path class="st11" d="M820.57,279.79l-10.76,71.29h-5.95l1.44-58.79h-43.96C761.34,292.29,824.3,255.07,820.57,279.79z"/>
			<path class="st12" d="M743.94,261.85c0,0-2.42,11.21-0.55,18.58c1.88,7.36,8.97,14.06,23.57,11.38
				c14.6-2.68,45.89-16.26,45.89-16.26l34.33,54.69l5.67-2.25c0,0-26.03-60.18-29.99-66.15c-3.96-5.97-6.9-5.07-17.53-4.63
				c-10.63,0.45-29.61-0.8-36.91-0.96C761.13,256.11,743.94,261.85,743.94,261.85z"/>
			<path class="st9" d="M827.31,244.55c0,0,3.02,0.51,4.19,0.27c1.17-0.24,4.73,0.64,5.69,1.78c0.96,1.14,2.68,3.71,2.95,4.48
				c0.27,0.77-0.68,1.16-0.96,0.75c-0.28-0.42-1.67-3.09-2.65-3.34c-0.97-0.25-3.61-0.65-3.69-0.2c-0.08,0.45,2.01,1.25,2.58,1.76
				c0.57,0.51,0.45,1.16,0.1,1.1c-0.35-0.06-2.08-0.9-2.68-0.94c-0.61-0.04-2.4-0.01-3.14-0.14c-0.74-0.14-2.42-2.35-3.23-2.65
				C825.66,247.11,824.66,244.78,827.31,244.55z"/>
			<path class="st14" d="M743.34,266.75c0,0,6.27-52.73,15.13-62.68c8.86-9.94,27.55-9.13,33.24-6.12
				c7.59,4.01-10.86,49.38-17.07,58.83C761.82,258.9,760.87,259.63,743.34,266.75z"/>
			<path class="st14" d="M765.07,203.6c5.82-4.63,14.68-2.38,17.55,4.35c4.23,9.9,11.77,27.14,13.65,28.52
				c2.66,1.95,31.01,7.31,31.01,7.31v4.76c0,0-29.62,3.35-34.73,1.95c-5.11-1.4-29.9-30.93-31.33-34.82
				C760.33,213.27,760.5,207.24,765.07,203.6z"/>
			<path class="st9" d="M795.68,184.13c-0.18,6.45-2.58,11.19-7.64,11.09c-5.06-0.1-11.92-6.61-11.74-13.06
				c0.18-6.45,5.01-9.89,10.07-9.79C791.42,172.48,795.85,177.68,795.68,184.13z"/>
			<path class="st9" d="M781.77,183.82l-5.48,11.61c0,0,4.27,5.25,7.76-1.25l3.54-7.47L781.77,183.82z"/>
			<path class="st18" d="M776.97,185.93c0.26,0.81,0.58,1.59,0.98,2.34c0.48,0.9,1.13,1.85,1.69,1.85c1.05,0,2.39-1.03,1.51-2.64
				c-0.88-1.6-1.29-1.68-1.81-3.55c-0.52-1.88,0.08-2.93,1.14-2.93c1.05,0,1.83,2.39,2.72,2.86c0.89,0.46,1.79-0.59,1.64-2.86
				c-0.15-2.26,1.84-3.37,4.71-4.03c2.87-0.66,7.68-0.7,9.41-3.34c1.73-2.64,1.54-9.51-3.28-9.96c-5.42,0.6-4.59,2.71-8.09,4.82
				c-3.51,2.11-10.28,2.36-11.64,7.08C774.79,179.64,775.78,182.24,776.97,185.93z"/>
			<g>
				<path class="st7" d="M796.27,236.79c-0.07,0-0.14-0.02-0.2-0.07c-2.31-1.77-12.14-24.88-12.56-25.87
					c-0.07-0.17,0.01-0.36,0.17-0.43c0.17-0.07,0.36,0.01,0.43,0.17c2.82,6.65,10.55,24.22,12.36,25.6
					c0.14,0.11,0.17,0.31,0.06,0.46C796.46,236.75,796.37,236.79,796.27,236.79z"/>
			</g>
			<g>
				<path class="st7" d="M796.22,251.02c-1.91,0-3.27-0.07-3.77-0.23c-2.81-0.91-10.5-9.03-14.83-13.79
					c-2.68-2.95-5.5-6.17-7.73-8.84c-3.43-4.1-3.41-4.39-3.4-4.56c0.01-0.16,0.12-0.29,0.27-0.32c0.18-0.04,0.35,0.07,0.39,0.25
					c0.01,0.03,0.01,0.05,0.01,0.08c0.44,0.87,5.46,6.93,11.19,13.22c7.17,7.86,12.38,12.72,14.31,13.34
					c2.22,0.72,25.49-0.6,34.58-1.96c0.17-0.03,0.34,0.1,0.37,0.27c0.03,0.18-0.1,0.34-0.27,0.37
					C820.4,249.89,803.85,251.02,796.22,251.02z"/>
			</g>
			<g>
				<path class="st14" d="M760.42,292.63c-6.03,0-10.64-1.86-13.71-5.55c-3.45-4.14-4.27-9.86-4.34-13.93
					c-0.08-4.39,0.65-7.86,0.66-7.9c0.04-0.18,0.21-0.29,0.39-0.25c0.18,0.04,0.29,0.21,0.25,0.39c-0.03,0.14-2.83,13.61,3.55,21.27
					c3.09,3.71,7.84,5.49,14.12,5.3c1.47,0,15.26-0.47,51.29-16.66l1.59-3.18c0.08-0.16,0.28-0.23,0.44-0.15
					c0.16,0.08,0.23,0.28,0.15,0.44l-1.69,3.39l-0.11,0.05c-36.24,16.29-50.19,16.76-51.66,16.76
					C761.03,292.62,760.72,292.63,760.42,292.63z"/>
			</g>
			<g>
				<path class="st14" d="M847.19,330.57c-0.11,0-0.21-0.05-0.28-0.15l-34.33-54.69c-0.1-0.15-0.05-0.35,0.1-0.45
					c0.15-0.1,0.35-0.05,0.45,0.1l34.33,54.69c0.1,0.15,0.05,0.35-0.1,0.45C847.31,330.56,847.25,330.57,847.19,330.57z"/>
			</g>
			<g>
				
					<ellipse transform="matrix(0.9685 -0.2492 0.2492 0.9685 -21.3805 201.0413)" class="st16" cx="783.34" cy="184.97" rx="4.23" ry="5.22"/>
				
					<ellipse transform="matrix(0.967 -0.2547 0.2547 0.967 -21.201 205.803)" class="st7" cx="784.04" cy="184.76" rx="3.98" ry="5.22"/>
				<g>
					<path class="st7" d="M783.81,185.04c-0.11,0-0.23-0.02-0.34-0.06c-0.22-0.08-5.36-2.1-6.07-12.98c-0.04-0.54,0.37-1,0.91-1.04
						c0.54-0.04,1,0.37,1.04,0.91c0.62,9.47,4.76,11.26,4.8,11.27c0.51,0.19,0.76,0.75,0.58,1.26
						C784.58,184.79,784.21,185.04,783.81,185.04z"/>
				</g>
				<g>
					<path class="st7" d="M792.95,191.79c-0.01,0-0.01,0-0.02,0c-6.14-0.29-8.86-3.92-8.97-4.07c-0.11-0.15-0.07-0.35,0.07-0.46
						c0.14-0.11,0.35-0.07,0.45,0.07l0,0c0.03,0.04,2.66,3.53,8.47,3.81c0.18,0.01,0.32,0.16,0.31,0.34
						C793.27,191.65,793.13,191.79,792.95,191.79z"/>
				</g>
				<path class="st7" d="M792.34,191.46c0,0.49,0.63,0.89,1.4,0.89c0.78,0,1.4-0.4,1.4-0.89s-0.63-0.89-1.4-0.89
					C792.97,190.57,792.34,190.97,792.34,191.46z"/>
				<g>
					<path class="st14" d="M784.84,190.06c-0.49,0-2.7-0.12-3.89-2.2c-0.04-0.08-0.02-0.18,0.06-0.22c0.08-0.04,0.18-0.02,0.22,0.06
						c1.23,2.15,3.66,2.03,3.68,2.03c0.09,0,0.17,0.06,0.17,0.15c0.01,0.09-0.06,0.17-0.15,0.17
						C784.93,190.06,784.9,190.06,784.84,190.06z"/>
				</g>
				<g>
					<path class="st14" d="M780.61,187.09c-0.06,0-0.12-0.04-0.15-0.1c-0.02-0.04-0.42-0.97-0.52-1.57
						c-0.01-0.09,0.05-0.17,0.14-0.19c0.09-0.01,0.17,0.05,0.19,0.14c0.09,0.56,0.49,1.48,0.5,1.49c0.04,0.08,0,0.18-0.08,0.21
						C780.66,187.09,780.63,187.09,780.61,187.09z"/>
				</g>
				<g>
					<path class="st14" d="M779.98,184.54c-0.08,0-0.15-0.06-0.16-0.14c-0.13-1.04,0.37-2.44,0.39-2.5c0.03-0.08,0.12-0.13,0.21-0.1
						c0.08,0.03,0.13,0.12,0.1,0.21c0,0.01-0.49,1.38-0.37,2.34c0.01,0.09-0.05,0.17-0.14,0.18
						C779.99,184.54,779.98,184.54,779.98,184.54z"/>
				</g>
			</g>
		</g>
		<g>
			<path class="st6" d="M798.06,260.47h169.56c1.71,0,3.09-1.38,3.09-3.09l0,0c0-1.71-1.38-3.09-3.09-3.09H798.06
				c-1.71,0-3.09,1.38-3.09,3.09v0C794.97,259.08,796.35,260.47,798.06,260.47z"/>
			<path class="st6" d="M798.42,366.48l16.1-108.67l-10.11-1.22l-10.24,109.38c-0.19,1.55,0.61,2.92,1.78,3.07l0,0
				C797.14,369.17,798.24,368.03,798.42,366.48z"/>
			<path class="st6" d="M969.77,366.48l-16.1-108.67l10.11-1.22l10.24,109.38c0.19,1.55-0.61,2.92-1.78,3.07l0,0
				C971.06,369.17,969.96,368.03,969.77,366.48z"/>
			<path class="st21" d="M795.58,257.37h175.07c1.71,0,3.09-1.38,3.09-3.09l0,0c0-1.71-1.38-3.09-3.09-3.09H795.58
				c-1.71,0-3.09,1.38-3.09,3.09l0,0C792.49,255.99,793.87,257.37,795.58,257.37z"/>
		</g>
		<g>
			<path class="st6" d="M683.55,270.31h169.56c1.71,0,3.09-1.38,3.09-3.09l0,0c0-1.71-1.38-3.09-3.09-3.09H683.55
				c-1.71,0-3.09,1.38-3.09,3.09l0,0C680.46,268.92,681.84,270.31,683.55,270.31z"/>
			<path class="st6" d="M683.91,376.3l16.1-108.65l-10.11-1.22l-10.24,109.36c-0.19,1.55,0.61,2.92,1.78,3.06l0,0
				C682.62,379,683.73,377.85,683.91,376.3z"/>
			<path class="st6" d="M855.26,376.3l-16.1-108.65l10.11-1.22l10.24,109.36c0.19,1.55-0.61,2.92-1.78,3.06l0,0
				C856.55,379,855.45,377.85,855.26,376.3z"/>
			<path class="st21" d="M681.07,267.22h175.07c1.71,0,3.09-1.38,3.09-3.09l0,0c0-1.71-1.38-3.09-3.09-3.09H681.07
				c-1.71,0-3.09,1.38-3.09,3.09l0,0C677.98,265.83,679.36,267.22,681.07,267.22z"/>
		</g>
		<g>
			<g>
				<path class="st23" d="M97.2,240.52h-0.29c-1.42,0-2.58-1.16-2.58-2.58v-72.78c0-1.42,1.16-2.58,2.58-2.58h0.29
					c1.42,0,2.58,1.16,2.58,2.58v72.78C99.78,239.36,98.62,240.52,97.2,240.52z"/>
				<path class="st24" d="M94.33,229.89l-6.54-3.21c-2.57-1.26-4.21-3.97-4.21-6.96v-22.57c0-2.7,1.35-5.19,3.54-6.58l7.21-4.55
					V229.89z"/>
				<g>
					
						<rect x="61.26" y="230.47" transform="matrix(0.4028 -0.9153 0.9153 0.4028 -166.2003 211.5958)" class="st24" width="35.56" height="5.37"/>
				</g>
				<path class="st24" d="M98.65,250.56H64.1c-0.62,0-1.13-0.51-1.13-1.13l0,0c0-0.62,0.51-1.13,1.13-1.13h34.55
					c0.62,0,1.13,0.51,1.13,1.13l0,0C99.78,250.05,99.27,250.56,98.65,250.56z"/>
			</g>
			<g>
				<path class="st7" d="M94.33,184.84c-0.18,0-0.33-0.15-0.33-0.33v-20.13c0-1.44,1.36-2.02,2.08-2.13
					c0.18-0.03,0.34,0.1,0.37,0.27c0.03,0.18-0.1,0.34-0.27,0.37c-0.07,0.01-1.53,0.26-1.53,1.49v20.13
					C94.66,184.69,94.51,184.84,94.33,184.84z"/>
			</g>
			<g>
				<path class="st7" d="M94.33,197.8c-0.18,0-0.33-0.15-0.33-0.33v-9.14c0-0.18,0.15-0.33,0.33-0.33c0.18,0,0.33,0.15,0.33,0.33
					v9.14C94.66,197.65,94.51,197.8,94.33,197.8z"/>
			</g>
			<g>
				<path class="st7" d="M99.78,249.76c-0.15,0-0.29-0.11-0.32-0.26c-0.01-0.03-0.13-0.48-0.89-0.87H79.95
					c-0.18,0-0.33-0.15-0.33-0.33c0-0.18,0.15-0.33,0.33-0.33h18.77l0.07,0.03c1.12,0.54,1.29,1.28,1.31,1.36
					c0.03,0.18-0.08,0.35-0.26,0.38C99.82,249.75,99.8,249.76,99.78,249.76z"/>
			</g>
			<g>
				<path class="st7" d="M78.14,248.63h-3.54c-0.18,0-0.33-0.15-0.33-0.33c0-0.18,0.15-0.33,0.33-0.33h3.54
					c0.18,0,0.33,0.15,0.33,0.33C78.47,248.48,78.32,248.63,78.14,248.63z"/>
			</g>
		</g>
		<g>
			<path class="st2" d="M830.36,241.34h14.88l-1.84,19.27c-0.02,0.24-0.22,0.42-0.46,0.42h-10.07c-0.24,0-0.44-0.18-0.46-0.42
				L830.36,241.34z"/>
			<path class="st2" d="M841.56,243.44c1.07-0.06,2.14-0.13,3.22-0.17c1.08-0.03,2.18-0.03,3.3,0.11c0.56,0.07,1.13,0.19,1.7,0.39
				c0.56,0.21,1.15,0.53,1.6,1.05c0.22,0.26,0.41,0.56,0.53,0.88c0.12,0.32,0.2,0.65,0.22,0.96c0.06,0.64-0.02,1.25-0.16,1.82
				c-0.28,1.15-0.79,2.19-1.4,3.14c-0.62,0.95-1.34,1.83-2.17,2.61c-0.83,0.78-1.76,1.46-2.79,1.99c-1.03,0.53-2.19,0.88-3.39,0.96
				l-0.08-1.68c0.94-0.04,1.88-0.3,2.76-0.72c0.88-0.43,1.71-1,2.46-1.68c0.75-0.67,1.41-1.45,1.98-2.28
				c0.56-0.83,1.02-1.74,1.27-2.67c0.25-0.93,0.24-1.88-0.25-2.45c-0.24-0.3-0.62-0.53-1.05-0.7c-0.43-0.17-0.92-0.28-1.41-0.36
				c-1-0.15-2.05-0.17-3.1-0.16c-1.06,0.01-2.12,0.06-3.19,0.1L841.56,243.44z"/>
		</g>
		<g>
			<rect x="900.27" y="243.47" class="st14" width="50.48" height="2.27"/>
			<rect x="900.27" y="248.92" class="st14" width="50.48" height="2.27"/>
			<path class="st25" d="M950.67,243.47L950.67,243.47c0.6,0,1.08,0.49,1.08,1.08v5.55c0,0.6-0.49,1.08-1.08,1.08l0,0
				c-0.6,0-1.08-0.49-1.08-1.08v-5.55C949.58,243.96,950.07,243.47,950.67,243.47z"/>
			<rect x="901.32" y="245.74" class="st26" width="25.24" height="3.18"/>
			<rect x="926.56" y="245.74" class="st13" width="23.02" height="3.18"/>
		</g>
		<g>
			<rect x="905.69" y="243.47" class="st14" width="50.48" height="2.27"/>
			<rect x="905.69" y="248.92" class="st14" width="50.48" height="2.27"/>
			<path class="st14" d="M956.09,243.47L956.09,243.47c0.6,0,1.08,0.49,1.08,1.08v5.55c0,0.6-0.49,1.08-1.08,1.08l0,0
				c-0.6,0-1.08-0.49-1.08-1.08v-5.55C955,243.96,955.49,243.47,956.09,243.47z"/>
			<rect x="906.74" y="245.74" class="st26" width="25.24" height="3.18"/>
			<rect x="931.98" y="245.74" class="st13" width="23.02" height="3.18"/>
		</g>
		<ellipse class="st1" cx="455.55" cy="426.32" rx="126.69" ry="6.84"/>
		<g>
			<path class="st27" d="M530,423.68H381.09c-8.78,0-15.9-7.12-15.9-15.9V81.46c0-8.78,7.12-15.9,15.9-15.9H530
				c8.78,0,15.9,7.12,15.9,15.9v326.32C545.9,416.56,538.78,423.68,530,423.68z"/>
			<path class="st13" d="M533.85,411.02h-156.6c-3.66,0-6.63-2.97-6.63-6.63V77.62c0-3.66,2.97-6.63,6.63-6.63h73.72h4.58h4.23
				h74.07c3.66,0,6.63,2.97,6.63,6.63v326.76C540.48,408.05,537.51,411.02,533.85,411.02z"/>
			<path class="st28" d="M377.25,392.44c-3.66,0-6.63,2.97-6.63,6.63v10.39c0,4.52,6.32,8.18,14.12,8.18h142.54
				c7.8,0,14.12-3.66,14.12-8.18v-10.39c0-3.66-2.97-6.63-6.63-6.63H377.25z"/>
			<g>
				<path class="st13" d="M460.05,413.48h-3.58c-3.66,0-6.63-2.97-6.63-6.63v-3.6c0-3.66,2.97-6.63,6.63-6.63h3.58
					c3.66,0,6.63,2.97,6.63,6.63v3.6C466.68,410.51,463.71,413.48,460.05,413.48z M458.26,398.41L458.26,398.41
					c-3.66,0-6.63,2.97-6.63,6.63v0.01c0,3.66,2.97,6.63,6.63,6.63h0c3.66,0,6.63-2.97,6.63-6.63v-0.01
					C464.89,401.38,461.92,398.41,458.26,398.41z"/>
			</g>
		</g>
		<g>
			<g>
				<path class="st29" d="M495.24,166.9h-70.67c-13.83,0-25.04-11.21-25.04-25.04v-2.77c0-13.83,11.21-25.04,25.04-25.04h70.67
					c13.83,0,25.04,11.21,25.04,25.04v2.77C520.27,155.69,509.06,166.9,495.24,166.9z"/>
				<path class="st25" d="M494.16,165.34h-70.34c-13.42,0-24.3-10.88-24.3-24.3v-2.69c0-13.42,10.88-24.3,24.3-24.3h70.34
					c13.42,0,24.3,10.88,24.3,24.3v2.69C518.46,154.46,507.58,165.34,494.16,165.34z"/>
			</g>
			<g>
				<path class="st13" d="M411.33,129.58h1.69v9.56h13.15v-9.56h1.69v21.94h-1.69v-10.81h-13.15v10.81h-1.69V129.58z"/>
				<path class="st13" d="M450.31,140.74h-11.18v9.21h12.24l-0.25,1.57h-13.68v-21.94h13.43v1.57h-11.74v8.02h11.18V140.74z"/>
				<path class="st13" d="M458.83,129.58h1.69v20.37h11.77l-0.31,1.57h-13.15V129.58z"/>
				<path class="st13" d="M478.81,129.58h7.83c4.01,0,6.76,2.23,6.76,6.11c0,3.95-2.72,6.27-6.98,6.27h-5.89v9.56h-1.72V129.58z
					 M480.53,140.4h6.04c3.54,0,5.01-1.88,5.01-4.64c0-2.95-1.94-4.61-4.89-4.61h-6.17V140.4z"/>
				<path class="st13" d="M502.8,144.5l-0.16-11.03v-3.89h1.72v3.89l-0.16,11.03H502.8z M502.67,151.55v-3.73h1.6v3.73H502.67z"/>
			</g>
		</g>
		<g>
			<path class="st30" d="M523.76,323.85c0,3.29-2.29,5.96-5.12,5.96H397.87c-2.83,0-5.12-2.67-5.12-5.96v-32
				c0-3.29,2.29-5.96,5.12-5.96h110.64l15.25-19.45v25.26h0c0,0.05,0,0.1,0,0.15V323.85z"/>
			<g>
				<rect x="398.44" y="293.68" class="st13" width="24.06" height="1.96"/>
				<rect x="485.6" y="316.36" class="st13" width="30.81" height="1.96"/>
				<g>
					<rect x="429.43" y="293.68" class="st13" width="45.78" height="1.96"/>
					<rect x="482.14" y="293.68" class="st13" width="34.28" height="1.96"/>
				</g>
				<g>
					<rect x="398.44" y="305.02" class="st13" width="56.36" height="1.96"/>
					<rect x="461.72" y="305.02" class="st13" width="54.69" height="1.96"/>
				</g>
				<rect x="398.44" y="316.36" class="st13" width="11.57" height="1.96"/>
				<rect x="416.93" y="316.36" class="st13" width="61.74" height="1.96"/>
			</g>
		</g>
		<g>
			<rect x="392.75" y="339.99" class="st30" width="131.01" height="3.39"/>
			<rect x="392.75" y="346.33" class="st30" width="131.01" height="3.39"/>
			<rect x="405.17" y="353.68" class="st30" width="106.17" height="3.39"/>
			<rect x="426.45" y="362.96" class="st30" width="63.61" height="3.39"/>
		</g>
		<g>
			<ellipse class="st30" cx="461.89" cy="226.77" rx="50.95" ry="50.99"/>
			<g>
				<g>
					<g>
						<g>
							<g>
								<path class="st28" d="M478.03,215.93L478.03,215.93c-0.64,0-1.16-0.52-1.16-1.16v-13.13c0-0.64,0.52-1.16,1.16-1.16h0
									c0.94,0,1.71,0.77,1.71,1.71v12.03C479.74,215.16,478.98,215.93,478.03,215.93z"/>
								<path class="st28" d="M480.05,213.89h-0.62c-0.3,0-0.55-0.25-0.55-0.55v-10.82c0-0.3,0.25-0.55,0.55-0.55h0.09
									c0.6,0,1.08,0.48,1.08,1.08v10.29C480.6,213.65,480.36,213.89,480.05,213.89z"/>
								<path class="st28" d="M445.75,215.93L445.75,215.93c0.64,0,1.16-0.52,1.16-1.16v-13.13c0-0.64-0.52-1.16-1.16-1.16h0
									c-0.94,0-1.71,0.77-1.71,1.71v12.03C444.04,215.16,444.81,215.93,445.75,215.93z"/>
								<path class="st28" d="M443.74,213.89h0.62c0.3,0,0.55-0.25,0.55-0.55v-10.82c0-0.3-0.25-0.55-0.55-0.55h-0.09
									c-0.6,0-1.08,0.48-1.08,1.08v10.29C443.18,213.65,443.43,213.89,443.74,213.89z"/>
							</g>
							<g>
								<path class="st28" d="M479.12,201.97h-1.63c0-7.15-7-12.96-15.6-12.96c-8.6,0-15.6,5.82-15.6,12.96h-1.63
									c0-8.05,7.73-14.59,17.23-14.59S479.12,193.92,479.12,201.97z"/>
							</g>
						</g>
						<g>
							<g>
								<path class="st28" d="M475.77,207.88c0,7.67-6.21,16.69-13.88,16.69c-7.66,0-13.88-9.02-13.88-16.69
									c0-7.67,6.21-13.89,13.88-13.89C469.56,193.99,475.77,200.21,475.77,207.88z"/>
								<path class="st28" d="M435.22,260.16c0-18.82,1.95-35.59,26.67-35.59s26.67,16.78,26.67,35.59H435.22z"/>
								<rect x="454.63" y="219.14" class="st28" width="14.53" height="13.46"/>
							</g>
							<g>
								<path class="st13" d="M460.11,218.52c-5.64-0.43-10.13-2.59-13.36-6.42l1.37-1.15c2.91,3.45,6.99,5.4,12.13,5.79
									L460.11,218.52z"/>
							</g>
							<path class="st13" d="M458.58,217.26c0.14-0.89,0.97-1.5,1.86-1.36c0.89,0.14,1.5,0.97,1.36,1.86
								c-0.14,0.89-0.97,1.5-1.86,1.36C459.06,218.98,458.45,218.15,458.58,217.26z"/>
						</g>
					</g>
				</g>
				<g>
					<g>
						<path class="st13" d="M430.84,236.07c-4.78,3.15-6.1,9.58-2.95,14.36c3.15,4.78,9.57,6.1,14.35,2.95
							c4.78-3.15,6.1-9.58,2.95-14.36C442.04,234.24,435.61,232.91,430.84,236.07z M439.85,249.76c-2.78,1.83-6.52,1.06-8.35-1.72
							c-1.83-2.78-1.06-6.52,1.72-8.36c2.78-1.83,6.52-1.06,8.35,1.72C443.4,244.18,442.63,247.93,439.85,249.76z"/>
						<g>
							<path class="st13" d="M428.26,240.56l-2.77-0.57c-0.54-0.11-1.06,0.24-1.17,0.77l-0.57,2.77c-0.11,0.54,0.24,1.06,0.77,1.17
								l2.77,0.57c0.54,0.11,1.06-0.24,1.17-0.77l0.57-2.77C429.15,241.19,428.8,240.67,428.26,240.56z"/>
							<path class="st13" d="M448.55,244.73l-2.77-0.57c-0.54-0.11-1.06,0.24-1.17,0.77l-0.57,2.77c-0.11,0.54,0.24,1.06,0.77,1.17
								l2.77,0.57c0.54,0.11,1.06-0.24,1.17-0.77l0.57-2.77C449.44,245.37,449.09,244.84,448.55,244.73z"/>
							<path class="st13" d="M433.64,235.94l-1.56-2.37c-0.3-0.46-0.92-0.59-1.38-0.28l-2.36,1.56c-0.46,0.3-0.58,0.92-0.28,1.38
								l1.56,2.37c0.3,0.46,0.92,0.59,1.38,0.28l2.36-1.56C433.81,237.01,433.94,236.39,433.64,235.94z"/>
							<path class="st13" d="M445.02,253.22l-1.56-2.37c-0.3-0.46-0.92-0.59-1.38-0.28l-2.36,1.56c-0.46,0.3-0.58,0.92-0.28,1.38
								l1.56,2.37c0.3,0.46,0.92,0.59,1.38,0.28l2.36-1.56C445.19,254.29,445.32,253.68,445.02,253.22z"/>
							<path class="st13" d="M440.72,232.54l-2.77-0.57c-0.54-0.11-1.06,0.24-1.17,0.77l-0.57,2.77c-0.11,0.54,0.24,1.06,0.77,1.17
								l2.77,0.57c0.54,0.11,1.06-0.24,1.17-0.77l0.57-2.77C441.6,233.17,441.25,232.65,440.72,232.54z"/>
							<path class="st13" d="M436.55,252.84l-2.77-0.57c-0.54-0.11-1.06,0.24-1.17,0.77l-0.57,2.77c-0.11,0.54,0.24,1.06,0.77,1.17
								l2.77,0.57c0.54,0.11,1.06-0.24,1.17-0.77l0.57-2.77C437.43,253.48,437.09,252.96,436.55,252.84z"/>
							<path class="st13" d="M445.31,241.82l2.36-1.56c0.46-0.3,0.58-0.92,0.28-1.38l-1.56-2.37c-0.3-0.46-0.92-0.59-1.38-0.28
								l-2.36,1.56c-0.46,0.3-0.58,0.92-0.28,1.38l1.56,2.37C444.24,241.99,444.86,242.12,445.31,241.82z"/>
							<path class="st13" d="M428.05,253.21l2.36-1.56c0.46-0.3,0.58-0.92,0.28-1.38l-1.56-2.37c-0.3-0.46-0.92-0.59-1.38-0.28
								l-2.36,1.56c-0.46,0.3-0.58,0.92-0.28,1.38l1.56,2.37C426.97,253.39,427.59,253.51,428.05,253.21z"/>
						</g>
					</g>
					<g>
						<g>
							<path class="st13" d="M452.81,248.77c-4.12,1-6.65,5.16-5.64,9.29c1,4.12,5.16,6.65,9.28,5.65c4.12-1,6.65-5.16,5.64-9.29
								C461.09,250.3,456.93,247.77,452.81,248.77z M455.69,260.59c-2.4,0.58-4.82-0.89-5.4-3.29s0.89-4.82,3.29-5.41
								c2.4-0.58,4.82,0.89,5.4,3.29C459.56,257.58,458.09,260,455.69,260.59z"/>
							<g>
								<path class="st13" d="M449.67,251.13l-1.35-0.82c-0.47-0.29-1.08-0.14-1.37,0.33l-0.82,1.36c-0.29,0.47-0.14,1.08,0.33,1.37
									l1.35,0.82c0.47,0.29,1.08,0.14,1.37-0.33l0.82-1.36C450.29,252.03,450.14,251.42,449.67,251.13z"/>
								<path class="st13" d="M462.8,259.12l-1.35-0.82c-0.47-0.29-1.08-0.14-1.37,0.33l-0.82,1.36c-0.29,0.47-0.14,1.08,0.33,1.37
									l1.35,0.82c0.47,0.29,1.08,0.14,1.37-0.33l0.82-1.36C463.41,260.02,463.26,259.41,462.8,259.12z"/>
								<path class="st13" d="M454.74,249.13l-0.38-1.54c-0.13-0.53-0.67-0.86-1.2-0.73l-1.54,0.38c-0.53,0.13-0.86,0.67-0.73,1.2
									l0.37,1.54c0.13,0.53,0.67,0.86,1.2,0.73l1.54-0.38C454.54,250.21,454.87,249.67,454.74,249.13z"/>
								<path class="st13" d="M458.37,264.05l-0.37-1.54c-0.13-0.53-0.67-0.86-1.2-0.73l-1.54,0.38c-0.53,0.13-0.86,0.67-0.73,1.2
									l0.37,1.54c0.13,0.53,0.67,0.86,1.2,0.73l1.54-0.38C458.17,265.12,458.5,264.58,458.37,264.05z"/>
								<path class="st13" d="M460.37,248.65l-1.35-0.82c-0.47-0.29-1.08-0.14-1.37,0.33l-0.82,1.36c-0.29,0.47-0.14,1.08,0.33,1.37
									l1.35,0.82c0.47,0.29,1.08,0.14,1.37-0.33l0.82-1.36C460.99,249.55,460.84,248.93,460.37,248.65z"/>
								<path class="st13" d="M452.39,261.78l-1.35-0.82c-0.47-0.29-1.08-0.14-1.37,0.33l-0.82,1.36c-0.29,0.47-0.14,1.08,0.33,1.37
									l1.35,0.82c0.47,0.29,1.08,0.14,1.37-0.33l0.82-1.36C453.01,262.68,452.86,262.07,452.39,261.78z"/>
								<path class="st13" d="M461.73,256.35l1.54-0.38c0.53-0.13,0.86-0.67,0.73-1.2l-0.38-1.54c-0.13-0.53-0.67-0.86-1.2-0.73
									l-1.54,0.38c-0.53,0.13-0.86,0.67-0.73,1.2l0.37,1.54C460.66,256.15,461.2,256.48,461.73,256.35z"/>
								<path class="st13" d="M446.83,259.98l1.54-0.38c0.53-0.13,0.86-0.67,0.73-1.2l-0.37-1.54c-0.13-0.53-0.67-0.86-1.2-0.73
									l-1.54,0.38c-0.53,0.13-0.86,0.67-0.73,1.2l0.38,1.54C445.76,259.79,446.3,260.11,446.83,259.98z"/>
							</g>
						</g>
					</g>
				</g>
			</g>
		</g>
		<g>
			<g>
				<path class="st7" d="M545.9,170.49c-0.76,0-1.38-0.62-1.38-1.38V81.53c0-10.06-13.16-14.13-14.76-14.58h-57.41
					c-0.76,0-1.38-0.62-1.38-1.38c0-0.76,0.62-1.38,1.38-1.38h57.77l0.17,0.04c0.17,0.04,4.25,1.1,8.37,3.69
					c5.64,3.54,8.62,8.25,8.62,13.61v87.57C547.28,169.87,546.66,170.49,545.9,170.49z"/>
			</g>
			<g>
				<path class="st7" d="M462.08,66.95h-25.54c-0.76,0-1.38-0.62-1.38-1.38c0-0.76,0.62-1.38,1.38-1.38h25.54
					c0.76,0,1.38,0.62,1.38,1.38C463.46,66.33,462.84,66.95,462.08,66.95z"/>
			</g>
			<g>
				<path class="st7" d="M416.93,425.07h-35.79c-0.03,0-0.07,0-0.1,0c-8.92-0.64-13.14-5.34-15.12-9.16
					c-2.12-4.1-2.12-8.03-2.12-8.19v-18.39c0-0.76,0.62-1.38,1.38-1.38c0.76,0,1.38,0.62,1.38,1.38v18.4c0,0.04,0.02,3.5,1.86,7.01
					c2.4,4.58,6.69,7.13,12.76,7.57h35.74c0.76,0,1.38,0.62,1.38,1.38S417.69,425.07,416.93,425.07z"/>
			</g>
			<g>
				<path class="st7" d="M439.65,425.07H422.5c-0.76,0-1.38-0.62-1.38-1.38s0.62-1.38,1.38-1.38h17.15c0.76,0,1.38,0.62,1.38,1.38
					S440.42,425.07,439.65,425.07z"/>
			</g>
			<g>
				<path class="st7" d="M365.19,380.25c-0.76,0-1.38-0.62-1.38-1.38V306c0-0.76,0.62-1.38,1.38-1.38c0.76,0,1.38,0.62,1.38,1.38
					v72.87C366.57,379.63,365.95,380.25,365.19,380.25z"/>
			</g>
			<g>
				<path class="st7" d="M365.19,192.11c-0.76,0-1.38-0.62-1.38-1.38V93.11c0-0.76,0.62-1.38,1.38-1.38c0.76,0,1.38,0.62,1.38,1.38
					v97.61C366.57,191.49,365.95,192.11,365.19,192.11z"/>
			</g>
			<g>
				<path class="st7" d="M365.19,225.75c-0.76,0-1.38-0.62-1.38-1.38v-22.39c0-0.76,0.62-1.38,1.38-1.38c0.76,0,1.38,0.62,1.38,1.38
					v22.39C366.57,225.13,365.95,225.75,365.19,225.75z"/>
			</g>
			<g>
				<g>
					<path class="st14" d="M543.43,393.42h-75.44c-0.54,0-0.98-0.44-0.98-0.98s0.44-0.98,0.98-0.98h75.44
						c0.54,0,0.98,0.44,0.98,0.98S543.97,393.42,543.43,393.42z"/>
				</g>
				<g>
					<path class="st14" d="M457.25,393.42h-15.38c-0.54,0-0.98-0.44-0.98-0.98s0.44-0.98,0.98-0.98h15.38
						c0.54,0,0.98,0.44,0.98,0.98S457.79,393.42,457.25,393.42z"/>
				</g>
			</g>
		</g>
		<g>
			<path class="st7" d="M558.37,437.51v6.55h-23.31c0,0,2.12-5.49,7.84-6.1c5.72-0.61,8.9,0.06,10.38-2.85
				C554.77,432.2,558.37,437.51,558.37,437.51z"/>
			<path class="st7" d="M650.68,391.06l5.7,3.22l-11.45,20.32c0,0-3.73-4.54-1.45-9.83c2.28-5.29,4.43-7.73,2.62-10.45
				C644.29,391.59,650.68,391.06,650.68,391.06z"/>
			<path class="st12" d="M545.95,279.75c-3.85,11.74-14.13,75.64-12.16,78.39c1.18,5.35,15.57,79.9,15.57,79.9h9.09
				c0,0-3.8-76.63-1.78-83.24c2.02-6.61,19.4-63.86,20.05-75.03c0.65-11.16-1.19-19.48-13.62-24.73
				C550.34,249.66,568.1,138.31,545.95,279.75z"/>
			<path class="st11" d="M546.6,279.56c0,0,28.51,75.25,32.17,81.48c3.66,6.23,68.98,37,68.98,37l3.18-6.83
				c0,0-53.4-36.01-55.54-42.15c-2.16-6.19-4.39-64.27-14.44-77.88c-1.89-4.56-8.6-17.32-21.23-12.44S549.53,270.55,546.6,279.56z"
				/>
			<path class="st9" d="M557.79,175.17c-1.55,9.11-3.5,12.26-9.8,14.46c-8.73,3.04-15.37-3.71-14.35-14.46
				c0.87-9.2,5.45-15.94,12.07-16.73C555.51,157.27,559.46,165.3,557.79,175.17z"/>
			<path class="st22" d="M553.37,179.54l3.5,18.27c0,0-3.36,4.12-8.07,1.52l-2.94-17.22L553.37,179.54z"/>
			<path class="st9" d="M618.22,284.01c0,0,1.37-1.74,2.63-1.63c1.26,0.11,2.74,1.9,3.02,3.31c0.29,1.41,1.82,3.31,2.48,3.8
				c0.66,0.49,1.57,2.55,2.2,4.5s1.26,4.64,1.14,5.19c-0.11,0.56-0.8,0.18-1.14-0.96c-0.34-1.14-1.37-3.64-1.65-3.85
				s1.14,3.68,1.48,5.07s0.23,1.88-0.17,1.99c-0.4,0.11-2.97-7-3.37-7.22c-0.4-0.22,2.57,6.62,2.97,7.33c0.4,0.71-0.8,0.6-1.46-0.33
				c-0.65-0.92-2.43-5.75-2.91-5.97c-0.48-0.22,0.58,3.69,0.88,4.72s-0.85,0.6-1.13,0c-0.29-0.6-1.37-3.99-1.88-5.05
				s-0.95-0.07-1.13,1c-0.18,1.07-0.81,2.1-1.21,1.93c-0.4-0.16-0.68-0.05-0.4-2.28c0.29-2.22-0.4-3.69-0.34-4.94
				c0.06-1.25,0.8-2.5,0.57-3.31C618.56,286.51,617.93,284.94,618.22,284.01z"/>
			<path class="st31" d="M578.58,200.2c0,0,30.17,36.23,32.52,40.05c2.34,3.82,13.13,45.31,13.13,45.31l-6.2,1.49
				c0,0-13.59-33.65-16.62-36.92c-3.03-3.27-31.19-28.99-36-34.04C560.58,211.05,557.72,197.03,578.58,200.2z"/>
			<g>
				<path class="st14" d="M558.45,438.54c-0.26,0-0.48-0.21-0.49-0.47c-0.13-3.21-3.19-78.68-1.76-83.4
					c0.12-0.38,0.29-0.97,0.53-1.72c7.94-25.95,12.08-40.98,12.3-44.67c0.02-0.27,0.25-0.47,0.52-0.46
					c0.27,0.02,0.47,0.25,0.46,0.52c-0.23,3.77-4.38,18.87-12.34,44.89c-0.23,0.75-0.41,1.34-0.53,1.72
					c-1.11,3.66,0.69,55.94,1.8,83.08c0.01,0.27-0.2,0.5-0.47,0.51C558.46,438.54,558.46,438.54,558.45,438.54z"/>
			</g>
			<path class="st9" d="M469.76,167.95c0,0-1.75-3.35-1.59-5.19c0.16-1.84,0.04-2.39-0.99-4.11c-1.35-1.4-2.53-4.8-2.76-5.47
				s-0.09-1.12-0.41-1.44c-0.32-0.32-0.93-0.51-0.95,1.08c-0.01,1.6,1.54,4.59,1.78,5.3c0.24,0.72-0.69,1.5-1.18,1.07
				c-0.49-0.43-1.68,0.37-1.6,1.17c0.08,0.8-0.45,0.8-0.98,0.8s-1,0.32-0.85,0.88c0.16,0.56-0.32,1.04-0.71,1.12
				c-0.4,0.08-0.56,1.45,0.56,2.25c1.11,0.81,3.33,3.18,4.92,3.89s1.03,1.68,1.9,2.08C467.78,171.78,470.64,171.33,469.76,167.95z"
				/>
			<g>
				<path class="st3" d="M568.88,195.5c-8.1-2.37-22.11,1.85-34.14,4.38c-0.53,0.11-1.03,0.25-1.52,0.4
					c-1.93,0.29-41.61,5.62-63.46-34.14l-5.42,3.68c0,0,12.71,27.45,32.61,40.96c0,0,16.63,5.51,26.52,8.26
					c2.96,0.82,5.32,1.4,6.45,1.5c0.87,0.38,1.87,1.86,2.94,4.13c6.39,13.54,15.39,54.95,15.28,54.74
					c18.44-0.1,34.94-4.57,34.94-4.57s-0.43-11.91,1.12-43.82S576.98,197.87,568.88,195.5z"/>
				<path class="st31" d="M532.86,224.67c-1.07-2.27-2.07-3.76-2.94-4.13c-1.13-0.1-3.49-0.68-6.45-1.5
					c-9.89-2.75-26.52-8.26-26.52-8.26c1.75,1.19,3.56,2.27,5.41,3.21c9.57,4.86,16.3,7.67,21.59,9.18
					c5.76,17.83,22.15,56.04,22.15,56.04c2.43,0.15,3.31,0.14,5.71,0.13C551.93,279.55,539.25,238.22,532.86,224.67z"/>
			</g>
			<g>
				<path class="st7" d="M624.22,286.05c-0.21,0-0.41-0.14-0.47-0.36c-4.28-15.07-12.52-43.92-13.11-45.25
					c-0.53-1.21-14.45-18.21-23.67-29.35c-0.17-0.21-0.14-0.52,0.06-0.69s0.52-0.14,0.69,0.06c2.36,2.85,23.05,27.86,23.81,29.58
					c0.76,1.72,12.65,43.59,13.16,45.38c0.07,0.26-0.08,0.53-0.34,0.6C624.31,286.04,624.27,286.05,624.22,286.05z"/>
			</g>
			<g>
				<path class="st32" d="M577.04,218.57c2.57-15.78-10.27-16.34-13.99-21.83c-3.72-5.5-2.41-14.27-2.01-19.63
					c0.33-4.4,0.2-7.67-0.93-10.21c-0.27-0.52-0.57-1.05-0.9-1.57c-0.04-0.05-0.06-0.1-0.09-0.14c-0.96-1.51-2.17-3.06-3.7-4.64
					c0,0-11.6-9.87-18.22-2.22c-6.63,7.65,4.02,13.38,7.21,16.02c3.19,2.64,2.28,10.62-2.99,14.84c-5.27,4.22-2.73,12.98,3.83,15.38
					c6.56,2.4,9.42,7.08,5.66,13.41c-1.38,2.32-1.45,5.42-0.3,8.3l0,0C550.6,226.27,574.47,234.35,577.04,218.57z"/>
				<path class="st33" d="M559.12,165.19c0.02,0.04,0.05,0.09,0.09,0.14C559.18,165.28,559.15,165.23,559.12,165.19z"/>
				<path class="st34" d="M566.86,234.14c13.75-2.23,26.05-16.92,19.28-29.73c-6.78-12.81-19.58-7.12-21.99-16.22
					c-1.89-7.13-0.17-13.85-4.04-21.29c1.13,2.53,1.26,5.81,0.93,10.21c-0.4,5.36-1.71,14.13,2.01,19.63
					c3.72,5.5,16.56,6.06,13.99,21.83c-2.57,15.78-26.45,7.7-26.45,7.7l0,0C552.57,231.23,558.16,235.55,566.86,234.14z"/>
			</g>
			<g>
				<path class="st7" d="M583.07,275.33c0,0-0.01,0-0.01,0c-0.27-0.01-0.48-0.23-0.47-0.5c0.01-0.45,1.21-45.09,1.25-47.28
					c0-0.27,0.22-0.48,0.49-0.48c0,0,0.01,0,0.01,0c0.27,0.01,0.48,0.23,0.48,0.5c-0.04,2.19-1.24,46.84-1.25,47.29
					C583.55,275.12,583.33,275.33,583.07,275.33z"/>
			</g>
			<g>
				<path class="st31" d="M546.1,279.7c-0.19,0-0.37-0.11-0.45-0.3c-0.89-2.12-21.7-52.02-22.19-56.17
					c-0.03-0.27,0.16-0.51,0.43-0.54c0.27-0.03,0.51,0.16,0.54,0.43c0.38,3.21,14.63,37.98,22.12,55.91
					c0.1,0.25-0.01,0.54-0.26,0.64C546.23,279.69,546.17,279.7,546.1,279.7z"/>
			</g>
		</g>
		<g>
			<g>
				<path class="st23" d="M218.26,251.02h-0.29c-1.42,0-2.58-1.16-2.58-2.58v-72.78c0-1.42,1.16-2.58,2.58-2.58h0.29
					c1.42,0,2.58,1.16,2.58,2.58v72.78C220.84,249.86,219.68,251.02,218.26,251.02z"/>
				<path class="st24" d="M215.39,240.4l-6.54-3.21c-2.57-1.26-4.21-3.97-4.21-6.96v-22.57c0-2.7,1.35-5.19,3.54-6.58l7.21-4.55
					V240.4z"/>
				<g>
					
						<rect x="182.32" y="240.97" transform="matrix(0.4028 -0.9153 0.9153 0.4028 -103.5116 328.674)" class="st24" width="35.56" height="5.37"/>
				</g>
				<path class="st24" d="M219.71,261.06h-34.55c-0.62,0-1.13-0.51-1.13-1.13l0,0c0-0.62,0.51-1.13,1.13-1.13h34.55
					c0.62,0,1.13,0.51,1.13,1.13l0,0C220.84,260.55,220.33,261.06,219.71,261.06z"/>
			</g>
			<g>
				<path class="st7" d="M215.39,195.34c-0.18,0-0.33-0.15-0.33-0.33v-20.13c0-1.44,1.36-2.02,2.08-2.13
					c0.18-0.03,0.34,0.1,0.37,0.27c0.03,0.18-0.1,0.34-0.27,0.37c-0.07,0.01-1.53,0.26-1.53,1.49v20.13
					C215.72,195.19,215.57,195.34,215.39,195.34z"/>
			</g>
			<g>
				<path class="st7" d="M215.39,208.3c-0.18,0-0.33-0.15-0.33-0.33v-9.14c0-0.18,0.15-0.33,0.33-0.33c0.18,0,0.33,0.15,0.33,0.33
					v9.14C215.72,208.15,215.57,208.3,215.39,208.3z"/>
			</g>
			<g>
				<path class="st7" d="M220.84,260.26c-0.15,0-0.29-0.11-0.32-0.26c-0.01-0.03-0.13-0.48-0.89-0.87h-18.62
					c-0.18,0-0.33-0.15-0.33-0.33c0-0.18,0.15-0.33,0.33-0.33h18.77l0.07,0.03c1.12,0.54,1.29,1.28,1.31,1.36
					c0.03,0.18-0.08,0.35-0.26,0.38C220.88,260.26,220.86,260.26,220.84,260.26z"/>
			</g>
			<g>
				<path class="st7" d="M199.2,259.13h-3.54c-0.18,0-0.33-0.15-0.33-0.33c0-0.18,0.15-0.33,0.33-0.33h3.54
					c0.18,0,0.33,0.15,0.33,0.33C199.53,258.98,199.38,259.13,199.2,259.13z"/>
			</g>
		</g>
		<g>
			<g>
				<path class="st23" d="M738.33,251.35h0.29c1.42,0,2.58-1.16,2.58-2.58v-72.78c0-1.42-1.16-2.58-2.58-2.58h-0.29
					c-1.42,0-2.58,1.16-2.58,2.58v72.78C735.74,250.19,736.91,251.35,738.33,251.35z"/>
				<path class="st24" d="M741.19,240.72l6.54-3.21c2.57-1.26,4.21-3.97,4.21-6.96v-22.57c0-2.7-1.35-5.19-3.54-6.58l-7.21-4.55
					V240.72z"/>
				<g>
					
						<rect x="753.8" y="226.21" transform="matrix(0.9153 -0.4028 0.4028 0.9153 -34.1975 325.343)" class="st24" width="5.37" height="35.56"/>
				</g>
				<path class="st24" d="M736.87,261.39h34.55c0.62,0,1.13-0.51,1.13-1.13l0,0c0-0.62-0.51-1.13-1.13-1.13h-34.55
					c-0.62,0-1.13,0.51-1.13,1.13l0,0C735.74,260.88,736.25,261.39,736.87,261.39z"/>
			</g>
			<g>
				<path class="st7" d="M741.19,195.67c0.18,0,0.33-0.15,0.33-0.33v-20.13c0-1.44-1.36-2.02-2.08-2.13
					c-0.18-0.03-0.34,0.1-0.37,0.27c-0.03,0.18,0.1,0.34,0.27,0.37c0.07,0.01,1.53,0.26,1.53,1.49v20.13
					C740.87,195.52,741.01,195.67,741.19,195.67z"/>
			</g>
			<g>
				<path class="st7" d="M741.19,208.63c0.18,0,0.33-0.15,0.33-0.33v-9.14c0-0.18-0.15-0.33-0.33-0.33s-0.33,0.15-0.33,0.33v9.14
					C740.87,208.48,741.01,208.63,741.19,208.63z"/>
			</g>
			<g>
				<path class="st7" d="M735.74,260.59c0.15,0,0.29-0.11,0.32-0.26c0.01-0.03,0.13-0.48,0.89-0.87h18.62
					c0.18,0,0.33-0.15,0.33-0.33c0-0.18-0.15-0.33-0.33-0.33H736.8l-0.07,0.03c-1.12,0.54-1.29,1.28-1.31,1.36
					c-0.03,0.18,0.08,0.35,0.26,0.38C735.7,260.59,735.72,260.59,735.74,260.59z"/>
			</g>
			<g>
				<path class="st7" d="M757.38,259.46h3.54c0.18,0,0.33-0.15,0.33-0.33c0-0.18-0.15-0.33-0.33-0.33h-3.54
					c-0.18,0-0.33,0.15-0.33,0.33C757.05,259.31,757.2,259.46,757.38,259.46z"/>
			</g>
		</g>
		<g>
			<g>
				<path class="st23" d="M858.12,241.41h0.29c1.42,0,2.58-1.16,2.58-2.58v-72.78c0-1.42-1.16-2.58-2.58-2.58h-0.29
					c-1.42,0-2.58,1.16-2.58,2.58v72.78C855.54,240.25,856.71,241.41,858.12,241.41z"/>
				<path class="st24" d="M860.99,230.78l6.54-3.21c2.57-1.26,4.21-3.97,4.21-6.96v-22.57c0-2.7-1.35-5.19-3.54-6.58l-7.21-4.55
					V230.78z"/>
				<g>
					
						<rect x="873.6" y="216.26" transform="matrix(0.9153 -0.4028 0.4028 0.9153 -20.0471 372.751)" class="st24" width="5.37" height="35.56"/>
				</g>
				<path class="st24" d="M856.67,251.45h34.55c0.62,0,1.13-0.51,1.13-1.13l0,0c0-0.62-0.51-1.13-1.13-1.13h-34.55
					c-0.62,0-1.13,0.51-1.13,1.13l0,0C855.54,250.94,856.05,251.45,856.67,251.45z"/>
			</g>
			<g>
				<path class="st7" d="M860.99,185.72c0.18,0,0.33-0.15,0.33-0.33v-20.13c0-1.44-1.36-2.02-2.08-2.13
					c-0.18-0.03-0.34,0.1-0.37,0.27c-0.03,0.18,0.1,0.34,0.27,0.37c0.07,0.01,1.53,0.26,1.53,1.49v20.13
					C860.67,185.58,860.81,185.72,860.99,185.72z"/>
			</g>
			<g>
				<path class="st7" d="M860.99,198.69c0.18,0,0.33-0.15,0.33-0.33v-9.14c0-0.18-0.15-0.33-0.33-0.33c-0.18,0-0.33,0.15-0.33,0.33
					v9.14C860.67,198.54,860.81,198.69,860.99,198.69z"/>
			</g>
			<g>
				<path class="st7" d="M855.54,250.65c0.15,0,0.29-0.11,0.32-0.26c0.01-0.03,0.13-0.48,0.89-0.87h18.62
					c0.18,0,0.33-0.15,0.33-0.33c0-0.18-0.15-0.33-0.33-0.33H856.6l-0.07,0.03c-1.12,0.54-1.29,1.28-1.31,1.36
					c-0.03,0.18,0.08,0.35,0.26,0.38C855.5,250.64,855.52,250.65,855.54,250.65z"/>
			</g>
			<g>
				<path class="st7" d="M877.18,249.52h3.54c0.18,0,0.33-0.15,0.33-0.33c0-0.18-0.15-0.33-0.33-0.33h-3.54
					c-0.18,0-0.33,0.15-0.33,0.33C876.85,249.37,877,249.52,877.18,249.52z"/>
			</g>
		</g>
	</g>
</g>
<g id="Layer_2">
</g>
<g id="Layer_3">
</g>
</svg>
